<svg width="698" height="1114" viewBox="0 0 698 1114" fill="none" xmlns="http://www.w3.org/2000/svg">
<g clip-path="url(#clip0_1_19)">
<rect width="698" height="1114" fill="#F4F5F6"/>
<path d="M722.729 80.8831C760.079 43.5333 760.079 -17.0226 722.729 -54.3723C685.379 -91.7221 624.823 -91.7221 587.473 -54.3723C550.124 -17.0226 550.124 43.5333 587.473 80.8831C624.823 118.233 685.379 118.233 722.729 80.8831Z" fill="#F2C94C"/>
<path d="M507.22 144.732L514.57 148.972V140.492L507.22 144.732Z" fill="#F2C94C"/>
<path d="M507.22 136.242L514.57 140.492V132.002L507.22 136.242Z" fill="#F2C94C"/>
<path d="M507.22 127.762L514.57 132.002V123.522L507.22 127.762Z" fill="#F2C94C"/>
<path d="M507.22 119.282L514.57 123.522V115.042L507.22 119.282Z" fill="#F2C94C"/>
<path d="M514.569 140.492L521.909 144.732V136.242L514.569 140.492Z" fill="#F2C94C"/>
<path d="M514.569 132.002L521.909 136.242V127.762L514.569 132.002Z" fill="#F2C94C"/>
<path d="M514.569 123.522L521.909 127.762V119.282L514.569 123.522Z" fill="#F2C94C"/>
<path d="M521.909 144.732L529.259 148.972V140.492L521.909 144.732Z" fill="#F2C94C"/>
<path d="M521.909 136.242L529.259 140.492V132.002L521.909 136.242Z" fill="#F2C94C"/>
<path d="M521.909 127.762L529.259 132.002V123.522L521.909 127.762Z" fill="#F2C94C"/>
<path d="M521.909 119.282L529.259 123.522V115.042L521.909 119.282Z" fill="#F2C94C"/>
<path d="M529.26 140.492L536.61 144.732V136.242L529.26 140.492Z" fill="#F2C94C"/>
<path d="M529.26 132.002L536.61 136.242V127.762L529.26 132.002Z" fill="#F2C94C"/>
<path d="M529.26 123.522L536.61 127.762V119.282L529.26 123.522Z" fill="#F2C94C"/>
<path opacity="0.51" d="M407 65.4521C407 65.7174 406.895 65.9717 406.707 66.1593C406.52 66.3468 406.265 66.4521 406 66.4521C405.735 66.4521 405.48 66.3468 405.293 66.1593C405.105 65.9717 405 65.7174 405 65.4521C405 65.1869 405.105 64.9326 405.293 64.745C405.48 64.5575 405.735 64.4521 406 64.4521C406.265 64.4521 406.52 64.5575 406.707 64.745C406.895 64.9326 407 65.1869 407 65.4521Z" fill="black"/>
<path opacity="0.51" d="M407 88.292C407 88.4898 406.941 88.6831 406.831 88.8476C406.722 89.012 406.565 89.1402 406.383 89.2159C406.2 89.2916 405.999 89.3114 405.805 89.2728C405.611 89.2342 405.433 89.139 405.293 88.9991C405.153 88.8593 405.058 88.6811 405.019 88.4871C404.981 88.2931 405 88.0921 405.076 87.9093C405.152 87.7266 405.28 87.5704 405.444 87.4606C405.609 87.3507 405.802 87.292 406 87.292C406.265 87.292 406.52 87.3974 406.707 87.5849C406.895 87.7725 407 88.0268 407 88.292Z" fill="black"/>
<path opacity="0.51" d="M407 111.132C407 111.33 406.941 111.523 406.831 111.687C406.722 111.852 406.565 111.98 406.383 112.056C406.2 112.131 405.999 112.151 405.805 112.113C405.611 112.074 405.433 111.979 405.293 111.839C405.153 111.699 405.058 111.521 405.019 111.327C404.981 111.133 405 110.932 405.076 110.749C405.152 110.566 405.28 110.41 405.444 110.3C405.609 110.191 405.802 110.132 406 110.132C406.265 110.132 406.52 110.237 406.707 110.425C406.895 110.612 407 110.867 407 111.132Z" fill="black"/>
<path d="M612.389 102.312H559.459V49.3921H612.389V102.312ZM567.609 94.1721H604.239V57.5321H567.609V94.1721Z" stroke="black" stroke-width="0.25" stroke-miterlimit="10"/>
<path d="M613.789 185.672C621.309 182.432 624.469 189.762 631.979 186.522C639.489 183.282 636.329 175.952 643.839 172.702C651.349 169.452 654.509 176.792 662.029 173.552C669.549 170.312 666.369 162.982 673.889 159.732C681.409 156.482 684.559 163.822 692.079 160.582" stroke="black" stroke-width="0.17" stroke-miterlimit="10"/>
<path d="M467.25 89.2421C474.76 86.0021 477.92 93.3221 485.43 90.0821C492.94 86.8421 489.78 79.5121 497.29 76.2721C504.8 73.0321 507.96 80.3521 515.48 77.1121C523 73.8721 519.83 66.5421 527.34 63.3021C534.85 60.0621 538.01 67.3821 545.53 64.1421" stroke="black" stroke-width="0.17" stroke-miterlimit="10"/>
<g opacity="0.51">
<path opacity="0.51" d="M0.28981 286.22C0.836572 286.22 1.2798 285.777 1.2798 285.23C1.2798 284.683 0.836572 284.24 0.28981 284.24C-0.256952 284.24 -0.700195 284.683 -0.700195 285.23C-0.700195 285.777 -0.256952 286.22 0.28981 286.22Z" fill="black"/>
<path opacity="0.51" d="M0.28981 309.07C0.836572 309.07 1.2798 308.627 1.2798 308.08C1.2798 307.533 0.836572 307.09 0.28981 307.09C-0.256952 307.09 -0.700195 307.533 -0.700195 308.08C-0.700195 308.627 -0.256952 309.07 0.28981 309.07Z" fill="black"/>
<path opacity="0.51" d="M0.28981 331.91C0.836572 331.91 1.2798 331.466 1.2798 330.92C1.2798 330.373 0.836572 329.93 0.28981 329.93C-0.256952 329.93 -0.700195 330.373 -0.700195 330.92C-0.700195 331.466 -0.256952 331.91 0.28981 331.91Z" fill="black"/>
</g>
<g opacity="0.51">
<path opacity="0.51" d="M215.86 45C215.86 45.1978 215.802 45.3911 215.692 45.5556C215.582 45.72 215.426 45.8482 215.243 45.9239C215.06 45.9996 214.859 46.0194 214.665 45.9808C214.471 45.9422 214.293 45.847 214.153 45.7071C214.013 45.5673 213.918 45.3891 213.88 45.1951C213.841 45.0011 213.861 44.8001 213.936 44.6173C214.012 44.4346 214.14 44.2784 214.305 44.1685C214.469 44.0587 214.663 44 214.86 44C215.126 44 215.38 44.1054 215.567 44.2929C215.755 44.4804 215.86 44.7348 215.86 45Z" fill="black"/>
<path opacity="0.51" d="M230.8 45C230.8 45.2652 230.695 45.5196 230.507 45.7071C230.32 45.8946 230.066 46 229.8 46C229.535 46 229.281 45.8946 229.093 45.7071C228.906 45.5196 228.8 45.2652 228.8 45C228.8 44.7348 228.906 44.4804 229.093 44.2929C229.281 44.1054 229.535 44 229.8 44C230.066 44 230.32 44.1054 230.507 44.2929C230.695 44.4804 230.8 44.7348 230.8 45Z" fill="black"/>
<path opacity="0.51" d="M245.8 45C245.8 45.1978 245.742 45.3911 245.632 45.5556C245.522 45.72 245.366 45.8482 245.183 45.9239C245 45.9996 244.799 46.0194 244.605 45.9808C244.411 45.9422 244.233 45.847 244.093 45.7071C243.953 45.5673 243.858 45.3891 243.82 45.1951C243.781 45.0011 243.801 44.8001 243.876 44.6173C243.952 44.4346 244.08 44.2784 244.245 44.1685C244.409 44.0587 244.603 44 244.8 44C245.066 44 245.32 44.1054 245.507 44.2929C245.695 44.4804 245.8 44.7348 245.8 45Z" fill="black"/>
<path opacity="0.51" d="M260.73 45C260.73 45.1978 260.672 45.3911 260.562 45.5556C260.452 45.72 260.296 45.8482 260.113 45.9239C259.93 45.9996 259.729 46.0194 259.535 45.9808C259.341 45.9422 259.163 45.847 259.023 45.7071C258.884 45.5673 258.788 45.3891 258.75 45.1951C258.711 45.0011 258.731 44.8001 258.807 44.6173C258.882 44.4346 259.01 44.2784 259.175 44.1685C259.339 44.0587 259.533 44 259.73 44C259.996 44 260.25 44.1054 260.438 44.2929C260.625 44.4804 260.73 44.7348 260.73 45Z" fill="black"/>
<path opacity="0.51" d="M222.35 57.3799C222.897 57.3799 223.34 56.9367 223.34 56.3899C223.34 55.8431 222.897 55.3999 222.35 55.3999C221.804 55.3999 221.36 55.8431 221.36 56.3899C221.36 56.9367 221.804 57.3799 222.35 57.3799Z" fill="black"/>
<path opacity="0.51" d="M238.3 56.3901C238.3 56.5879 238.242 56.7813 238.132 56.9457C238.022 57.1102 237.866 57.2383 237.683 57.314C237.5 57.3897 237.299 57.4095 237.105 57.3709C236.911 57.3323 236.733 57.2371 236.593 57.0972C236.453 56.9574 236.358 56.7792 236.32 56.5852C236.281 56.3913 236.301 56.1902 236.376 56.0075C236.452 55.8247 236.58 55.6686 236.745 55.5587C236.909 55.4488 237.103 55.3901 237.3 55.3901C237.566 55.3901 237.82 55.4955 238.007 55.683C238.195 55.8706 238.3 56.1249 238.3 56.3901Z" fill="black"/>
<path opacity="0.51" d="M252.26 57.3799C252.807 57.3799 253.251 56.9367 253.251 56.3899C253.251 55.8431 252.807 55.3999 252.26 55.3999C251.714 55.3999 251.271 55.8431 251.271 56.3899C251.271 56.9367 251.714 57.3799 252.26 57.3799Z" fill="black"/>
<path opacity="0.51" d="M267.22 57.3799C267.767 57.3799 268.21 56.9367 268.21 56.3899C268.21 55.8431 267.767 55.3999 267.22 55.3999C266.674 55.3999 266.23 55.8431 266.23 56.3899C266.23 56.9367 266.674 57.3799 267.22 57.3799Z" fill="black"/>
<path opacity="0.51" d="M215.86 67.8398C215.86 68.0376 215.802 68.231 215.692 68.3954C215.582 68.5599 215.426 68.688 215.243 68.7637C215.06 68.8394 214.859 68.8592 214.665 68.8206C214.471 68.782 214.293 68.6868 214.153 68.547C214.013 68.4071 213.918 68.2289 213.88 68.0349C213.841 67.841 213.861 67.6399 213.936 67.4572C214.012 67.2744 214.14 67.1183 214.305 67.0084C214.469 66.8985 214.663 66.8398 214.86 66.8398C215.126 66.8398 215.38 66.9452 215.567 67.1328C215.755 67.3203 215.86 67.5746 215.86 67.8398Z" fill="black"/>
<path opacity="0.51" d="M230.8 67.8398C230.8 68.0376 230.742 68.231 230.632 68.3954C230.522 68.5599 230.366 68.688 230.183 68.7637C230 68.8394 229.799 68.8592 229.605 68.8206C229.411 68.782 229.233 68.6868 229.093 68.547C228.953 68.4071 228.858 68.2289 228.82 68.0349C228.781 67.841 228.801 67.6399 228.876 67.4572C228.952 67.2744 229.08 67.1183 229.245 67.0084C229.409 66.8985 229.603 66.8398 229.8 66.8398C230.066 66.8398 230.32 66.9452 230.507 67.1328C230.695 67.3203 230.8 67.5746 230.8 67.8398Z" fill="black"/>
<path opacity="0.51" d="M245.8 67.8398C245.8 68.0376 245.742 68.231 245.632 68.3954C245.522 68.5599 245.366 68.688 245.183 68.7637C245 68.8394 244.799 68.8592 244.605 68.8206C244.411 68.782 244.233 68.6868 244.093 68.547C243.953 68.4071 243.858 68.2289 243.82 68.0349C243.781 67.841 243.801 67.6399 243.876 67.4572C243.952 67.2744 244.08 67.1183 244.245 67.0084C244.409 66.8985 244.603 66.8398 244.8 66.8398C245.066 66.8398 245.32 66.9452 245.507 67.1328C245.695 67.3203 245.8 67.5746 245.8 67.8398Z" fill="black"/>
<path opacity="0.51" d="M260.73 67.8398C260.73 68.0376 260.672 68.231 260.562 68.3954C260.452 68.5599 260.296 68.688 260.113 68.7637C259.93 68.8394 259.729 68.8592 259.535 68.8206C259.341 68.782 259.163 68.6868 259.023 68.547C258.884 68.4071 258.788 68.2289 258.75 68.0349C258.711 67.841 258.731 67.6399 258.807 67.4572C258.882 67.2744 259.01 67.1183 259.175 67.0084C259.339 66.8985 259.533 66.8398 259.73 66.8398C259.996 66.8398 260.25 66.9452 260.438 67.1328C260.625 67.3203 260.73 67.5746 260.73 67.8398Z" fill="black"/>
<path opacity="0.51" d="M222.35 80.2202C222.897 80.2202 223.34 79.777 223.34 79.2302C223.34 78.6835 222.897 78.2402 222.35 78.2402C221.804 78.2402 221.36 78.6835 221.36 79.2302C221.36 79.777 221.804 80.2202 222.35 80.2202Z" fill="black"/>
<path opacity="0.51" d="M238.3 79.23C238.3 79.4952 238.195 79.7496 238.007 79.9371C237.82 80.1246 237.566 80.23 237.3 80.23C237.035 80.23 236.781 80.1246 236.593 79.9371C236.406 79.7496 236.3 79.4952 236.3 79.23C236.3 78.9648 236.406 78.7104 236.593 78.5229C236.781 78.3354 237.035 78.23 237.3 78.23C237.566 78.23 237.82 78.3354 238.007 78.5229C238.195 78.7104 238.3 78.9648 238.3 79.23Z" fill="black"/>
<path opacity="0.51" d="M252.26 80.2202C252.807 80.2202 253.251 79.777 253.251 79.2302C253.251 78.6835 252.807 78.2402 252.26 78.2402C251.714 78.2402 251.271 78.6835 251.271 79.2302C251.271 79.777 251.714 80.2202 252.26 80.2202Z" fill="black"/>
<path opacity="0.51" d="M267.22 80.2202C267.767 80.2202 268.21 79.777 268.21 79.2302C268.21 78.6835 267.767 78.2402 267.22 78.2402C266.674 78.2402 266.23 78.6835 266.23 79.2302C266.23 79.777 266.674 80.2202 267.22 80.2202Z" fill="black"/>
<path opacity="0.51" d="M215.86 90.6802C215.86 90.878 215.802 91.0713 215.692 91.2357C215.582 91.4002 215.426 91.5284 215.243 91.604C215.06 91.6797 214.859 91.6995 214.665 91.6609C214.471 91.6224 214.293 91.5271 214.153 91.3873C214.013 91.2474 213.918 91.0692 213.88 90.8753C213.841 90.6813 213.861 90.4802 213.936 90.2975C214.012 90.1148 214.14 89.9586 214.305 89.8487C214.469 89.7388 214.663 89.6802 214.86 89.6802C215.126 89.6802 215.38 89.7855 215.567 89.9731C215.755 90.1606 215.86 90.415 215.86 90.6802Z" fill="black"/>
<path opacity="0.51" d="M230.8 90.6802C230.8 90.878 230.742 91.0713 230.632 91.2357C230.522 91.4002 230.366 91.5284 230.183 91.604C230 91.6797 229.799 91.6995 229.605 91.6609C229.411 91.6224 229.233 91.5271 229.093 91.3873C228.953 91.2474 228.858 91.0692 228.82 90.8753C228.781 90.6813 228.801 90.4802 228.876 90.2975C228.952 90.1148 229.08 89.9586 229.245 89.8487C229.409 89.7388 229.603 89.6802 229.8 89.6802C230.066 89.6802 230.32 89.7855 230.507 89.9731C230.695 90.1606 230.8 90.415 230.8 90.6802Z" fill="black"/>
<path opacity="0.51" d="M245.8 90.6802C245.8 90.9454 245.695 91.1997 245.507 91.3873C245.32 91.5748 245.066 91.6802 244.8 91.6802C244.535 91.6802 244.281 91.5748 244.093 91.3873C243.906 91.1997 243.8 90.9454 243.8 90.6802C243.8 90.415 243.906 90.1606 244.093 89.9731C244.281 89.7855 244.535 89.6802 244.8 89.6802C245.066 89.6802 245.32 89.7855 245.507 89.9731C245.695 90.1606 245.8 90.415 245.8 90.6802Z" fill="black"/>
<path opacity="0.51" d="M260.73 90.6802C260.73 90.878 260.672 91.0713 260.562 91.2357C260.452 91.4002 260.296 91.5284 260.113 91.604C259.93 91.6797 259.729 91.6995 259.535 91.6609C259.341 91.6224 259.163 91.5271 259.023 91.3873C258.884 91.2474 258.788 91.0692 258.75 90.8753C258.711 90.6813 258.731 90.4802 258.807 90.2975C258.882 90.1148 259.01 89.9586 259.175 89.8487C259.339 89.7388 259.533 89.6802 259.73 89.6802C259.996 89.6802 260.25 89.7855 260.438 89.9731C260.625 90.1606 260.73 90.415 260.73 90.6802Z" fill="black"/>
<path opacity="0.51" d="M222.35 103.07C222.897 103.07 223.34 102.627 223.34 102.08C223.34 101.533 222.897 101.09 222.35 101.09C221.804 101.09 221.36 101.533 221.36 102.08C221.36 102.627 221.804 103.07 222.35 103.07Z" fill="black"/>
<path opacity="0.51" d="M238.3 102.08C238.3 102.278 238.242 102.471 238.132 102.636C238.022 102.8 237.866 102.928 237.683 103.004C237.5 103.08 237.299 103.099 237.105 103.061C236.911 103.022 236.733 102.927 236.593 102.787C236.453 102.647 236.358 102.469 236.32 102.275C236.281 102.081 236.301 101.88 236.376 101.697C236.452 101.515 236.58 101.358 236.745 101.249C236.909 101.139 237.103 101.08 237.3 101.08C237.566 101.08 237.82 101.185 238.007 101.373C238.195 101.56 238.3 101.815 238.3 102.08Z" fill="black"/>
<path opacity="0.51" d="M252.26 103.07C252.807 103.07 253.251 102.627 253.251 102.08C253.251 101.533 252.807 101.09 252.26 101.09C251.714 101.09 251.271 101.533 251.271 102.08C251.271 102.627 251.714 103.07 252.26 103.07Z" fill="black"/>
<path opacity="0.51" d="M267.22 103.07C267.767 103.07 268.21 102.627 268.21 102.08C268.21 101.533 267.767 101.09 267.22 101.09C266.674 101.09 266.23 101.533 266.23 102.08C266.23 102.627 266.674 103.07 267.22 103.07Z" fill="black"/>
</g>
<path d="M109.8 150.02H56.8799V97.0996H109.8V150.02ZM65.0199 141.88H101.66V105.24H65.0199V141.88Z" stroke="black" stroke-width="0.25" stroke-miterlimit="10"/>
<path d="M154.33 176.78C161.84 173.54 165.01 180.87 172.52 177.63C180.03 174.39 176.87 167.06 184.38 163.82C191.89 160.58 195.05 167.9 202.56 164.66C210.07 161.42 206.91 154.09 214.43 150.84C221.95 147.59 225.1 154.93 232.61 151.69" stroke="black" stroke-width="0.17" stroke-miterlimit="10"/>
<path d="M59.1797 209.77L63.9497 212.52V207.01L59.1797 209.77Z" fill="#F2C94C"/>
<path d="M77.6098 209.77L72.8398 207.01V212.52L77.6098 209.77Z" fill="#F2C94C"/>
<path d="M68.3997 218.98L71.1497 214.21H65.6396L68.3997 218.98Z" fill="#F2C94C"/>
<path d="M68.3997 200.55L65.6396 205.32H71.1497L68.3997 200.55Z" fill="#F2C94C"/>
<path d="M158.46 67.7197L163.23 70.4797V64.9697L158.46 67.7197Z" fill="black"/>
<path d="M176.89 67.7197L172.12 64.9697V70.4797L176.89 67.7197Z" fill="black"/>
<path d="M167.67 76.9399L170.43 72.1699H164.92L167.67 76.9399Z" fill="black"/>
<path d="M167.67 58.5098L164.92 63.2798H170.43L167.67 58.5098Z" fill="black"/>
</g>
<defs>
<clipPath id="clip0_1_19">
<rect width="698" height="1114" fill="white"/>
</clipPath>
</defs>
</svg>
