<svg width="429" height="444" viewBox="0 0 429 444" fill="none" xmlns="http://www.w3.org/2000/svg">
<g clip-path="url(#clip0_1_81)">
<path d="M395.74 88.35C398.116 87.2997 400.132 85.5755 401.538 83.391C402.944 81.2066 403.678 78.6577 403.65 76.06C403.65 68.72 398.13 62.75 391.25 62.71C384.37 62.67 378.77 68.61 378.74 75.94C378.689 78.5616 379.417 81.1394 380.83 83.3481C382.243 85.5568 384.279 87.2973 386.68 88.35C367.51 91.24 368.38 112.07 368.38 112.07L413.71 112.28C413.71 112.28 414.74 91.22 395.74 88.35Z" fill="#F5F5F5"/>
<path d="M127.89 10.48L98.26 0L68.92 10.34C65.18 12.08 61.92 13.12 61.92 16.56V33.66C61.8711 45.6944 65.2232 57.4977 71.59 67.71C77.9841 78.1077 87.4055 86.3008 98.59 91.19C110.59 87.35 119.53 77.12 125.01 68.38C131.358 58.1782 134.705 46.3954 134.67 34.38V19C134.63 14.05 132 11.66 127.89 10.48Z" fill="#F5F5F5"/>
<path d="M108.1 38.09C108.096 36.5656 107.667 35.0725 106.862 33.7784C106.056 32.4843 104.906 31.4403 103.54 30.7638C102.174 30.0872 100.646 29.8048 99.1284 29.9483C97.6108 30.0917 96.1632 30.6554 94.9482 31.576C93.7332 32.4966 92.7988 33.7376 92.25 35.1598C91.7012 36.5819 91.5597 38.1289 91.8414 39.6271C92.1231 41.1252 92.8168 42.5152 93.8446 43.6409C94.8725 44.7666 96.1938 45.5836 97.6602 46V58.21H102.14V46C103.861 45.513 105.375 44.4763 106.451 43.0479C107.527 41.6196 108.107 39.8783 108.1 38.09Z" fill="#EBEBEB"/>
<path d="M379.81 169.05L384.86 171.79L382.59 175.59L377.49 172.59L377.58 178.2H373.23V172.55L368.13 175.61L365.91 171.81L370.96 169.07L366 166.27L368.22 162.47L373.32 165.53V159.87H377.67L377.58 165.53L382.68 162.47L384.95 166.27L379.81 169.05Z" fill="#E0E0E0"/>
<path d="M400.85 169.05L405.85 171.79L403.58 175.59L398.48 172.59L398.58 178.2H394.22V172.55L389.13 175.61L386.9 171.81L391.95 169.07L387 166.27L389.23 162.47L394.32 165.53V159.87H398.68L398.58 165.53L403.68 162.47L405.95 166.27L400.85 169.05Z" fill="#E0E0E0"/>
<path d="M421.89 169.05L426.95 171.79L424.68 175.59L419.58 172.59L419.67 178.2H415.31L415.36 172.55L410.26 175.61L408.03 171.81L413.09 169.07L408 166.27L410.23 162.47L415.33 165.53L415.28 159.87H419.64L419.55 165.53L424.65 162.47L426.92 166.27L421.89 169.05Z" fill="#E0E0E0"/>
<path d="M207.8 408.41V439.47H253.23H303.33V408.41H207.8Z" fill="#F5F5F5"/>
<path d="M203.8 399.73V408.41H306.67V399.73H253.23H203.8Z" fill="#EBEBEB"/>
<path d="M255.23 439.47H303.33V408.41H306.67V399.73H253.23V407.61L255.23 439.47Z" fill="#EBEBEB"/>
<path d="M240.53 413.42H221.16V418.1H240.53V413.42Z" fill="#E0E0E0"/>
<path d="M243.55 423.94H218.67V433.81H243.55V423.94Z" fill="white"/>
<path d="M222.5 368.71V399.77H267.93H318.03V368.71H222.5Z" fill="#F5F5F5"/>
<path d="M218.49 360.02V368.71H321.37V360.02H267.93H218.49Z" fill="#EBEBEB"/>
<path d="M269.93 399.77H318.03V368.71H321.37V360.02H267.93V367.9L269.93 399.77Z" fill="#EBEBEB"/>
<path d="M255.23 373.72H235.86V378.4H255.23V373.72Z" fill="#E0E0E0"/>
<path d="M258.25 384.24H233.37V394.11H258.25V384.24Z" fill="white"/>
<path d="M428.14 439.71C428.14 439.86 332.29 439.97 214.08 439.97C95.87 439.97 0 439.86 0 439.71C0 439.56 95.83 439.45 214.08 439.45C332.33 439.45 428.14 439.57 428.14 439.71Z" fill="#263238"/>
<path d="M339.78 18.84H161.14C157.517 18.84 154.58 21.777 154.58 25.4V189.75C154.58 193.373 157.517 196.31 161.14 196.31H339.78C343.403 196.31 346.34 193.373 346.34 189.75V25.4C346.34 21.777 343.403 18.84 339.78 18.84Z" fill="white"/>
<path d="M339.78 196.31H340.25C340.714 196.267 341.172 196.18 341.62 196.05C342.337 195.829 343.013 195.492 343.62 195.05C344.478 194.419 345.165 193.584 345.62 192.62C346.158 191.381 346.372 190.025 346.24 188.68C346.24 187.18 346.24 185.55 346.24 183.78C346.24 180.24 346.24 176.15 346.24 171.55C346.24 153.15 346.19 126.55 346.15 93.63C346.15 77.18 346.15 59.16 346.15 39.82C346.15 34.9933 346.15 30.08 346.15 25.08C346.075 23.8602 345.648 22.6883 344.92 21.7066C344.193 20.7249 343.195 19.9757 342.05 19.55C340.858 19.1748 339.605 19.0355 338.36 19.14H302.67H161.16C159.638 19.1317 158.162 19.6672 157 20.65C155.847 21.6343 155.096 23.0081 154.89 24.51C154.821 25.2746 154.797 26.0426 154.82 26.81V88.37C154.82 112.04 154.82 134.88 154.82 156.63C154.82 167.503 154.82 178.097 154.82 188.41C154.82 189.05 154.82 189.71 154.82 190.32C154.876 190.937 155.021 191.544 155.25 192.12C155.716 193.266 156.504 194.253 157.52 194.96C158.53 195.659 159.722 196.048 160.95 196.08H179.46H233.27L311.19 196.16H332.37H337.88H339.76H337.88H332.37H311.19L233.27 196.25H179.46H161C159.679 196.217 158.396 195.798 157.31 195.044C156.225 194.291 155.383 193.236 154.89 192.01C154.643 191.392 154.485 190.742 154.42 190.08C154.42 189.41 154.42 188.78 154.42 188.08C154.42 177.78 154.42 167.187 154.42 156.3C154.42 134.55 154.42 111.71 154.42 88.04C154.42 76.2067 154.42 64.1733 154.42 51.94V26.81C154.392 26.0191 154.419 25.2272 154.5 24.44C154.721 22.8112 155.532 21.3202 156.78 20.25C158.025 19.1741 159.615 18.5814 161.26 18.58H302.77H334.55H338.4C339.699 18.4694 341.007 18.6155 342.25 19.01C343.465 19.4907 344.516 20.3113 345.276 21.3736C346.037 22.4359 346.476 23.6949 346.54 25C346.54 30 346.54 34.92 346.54 39.76C346.54 59.1 346.54 77.12 346.54 93.57C346.54 126.46 346.48 153.09 346.46 171.49C346.46 176.09 346.46 180.18 346.46 183.72C346.46 185.49 346.46 187.12 346.46 188.62C346.592 189.988 346.364 191.367 345.8 192.62C345.346 193.592 344.659 194.437 343.8 195.08C343.172 195.529 342.472 195.867 341.73 196.08C341.276 196.207 340.81 196.284 340.34 196.31H339.78Z" fill="#263238"/>
<path d="M169.05 31.1401C169.052 31.7976 168.859 32.4408 168.495 32.9883C168.131 33.5358 167.612 33.9629 167.005 34.2154C166.398 34.468 165.73 34.5346 165.085 34.4068C164.44 34.279 163.847 33.9626 163.383 33.4977C162.918 33.0328 162.601 32.4403 162.473 31.7953C162.346 31.1504 162.412 30.482 162.665 29.875C162.917 29.2679 163.344 28.7495 163.892 28.3854C164.439 28.0214 165.083 27.8281 165.74 27.8301C166.617 27.8327 167.458 28.1823 168.078 28.8025C168.698 29.4227 169.048 30.263 169.05 31.1401Z" fill="#263238"/>
<path d="M175.42 34.4501C177.248 34.4501 178.73 32.9681 178.73 31.1401C178.73 29.312 177.248 27.8301 175.42 27.8301C173.592 27.8301 172.11 29.312 172.11 31.1401C172.11 32.9681 173.592 34.4501 175.42 34.4501Z" fill="#263238"/>
<path d="M185.1 34.45C186.928 34.45 188.41 32.968 188.41 31.14C188.41 29.3119 186.928 27.83 185.1 27.83C183.272 27.83 181.79 29.3119 181.79 31.14C181.79 32.968 183.272 34.45 185.1 34.45Z" fill="#263238"/>
<path d="M346.34 40.55C346.34 40.69 303.41 40.81 250.46 40.81C197.51 40.81 154.58 40.69 154.58 40.55C154.58 40.41 197.5 40.29 250.46 40.29C303.42 40.29 346.34 40.4 346.34 40.55Z" fill="#263238"/>
<path d="M277.55 107.4L277.77 107.09L277.9 106.92C277.951 106.852 277.995 106.778 278.03 106.7C278.148 106.516 278.249 106.322 278.33 106.12C278.33 106 278.43 105.88 278.47 105.75L278.59 105.33C278.633 105.176 278.663 105.019 278.68 104.86C278.718 104.692 278.745 104.521 278.76 104.35C278.826 103.518 278.785 102.682 278.64 101.86C278.214 99.6125 277.445 97.4439 276.36 95.4299C274.957 92.7435 273.314 90.1897 271.45 87.7999C269.21 84.8915 266.767 82.1447 264.14 79.5799C261.133 76.6245 257.922 73.8844 254.53 71.3799C252.744 70.0466 250.85 68.7799 248.85 67.5799C246.823 66.3456 244.719 65.2433 242.55 64.2799C240.32 63.2514 237.968 62.5121 235.55 62.0799C234.315 61.8617 233.055 61.828 231.81 61.9799C231.186 62.0768 230.578 62.255 230 62.5099C229.431 62.7814 228.919 63.158 228.49 63.6199C228.077 64.0989 227.758 64.652 227.55 65.2499C227.362 65.8528 227.258 66.4787 227.24 67.1099C227.224 68.3619 227.396 69.6091 227.75 70.8099C228.465 73.1697 229.473 75.4306 230.75 77.5399C231.952 79.5894 233.288 81.557 234.75 83.4299C236.17 85.2699 237.66 86.9999 239.17 88.6399C242.042 91.7251 245.13 94.6023 248.41 97.2499C251.257 99.5695 254.265 101.685 257.41 103.58C259.994 105.156 262.715 106.495 265.54 107.58C267.668 108.433 269.914 108.952 272.2 109.12C273.031 109.171 273.864 109.114 274.68 108.95C274.85 108.918 275.017 108.875 275.18 108.82C275.338 108.787 275.493 108.736 275.64 108.67L276.04 108.51C276.17 108.45 276.28 108.38 276.39 108.32C276.58 108.22 276.761 108.102 276.93 107.97L277.14 107.81L277.3 107.66L277.58 107.4L277.31 107.68L277.15 107.83L276.95 107.99C276.779 108.128 276.595 108.249 276.4 108.35L276.06 108.54L275.65 108.71C275.502 108.773 275.348 108.823 275.19 108.86C275.027 108.915 274.86 108.958 274.69 108.99C273.869 109.162 273.028 109.225 272.19 109.18C269.902 109.02 267.652 108.508 265.52 107.66C262.681 106.578 259.946 105.239 257.35 103.66C254.204 101.765 251.197 99.6501 248.35 97.3299C245.035 94.6866 241.911 91.8128 239 88.7299C237.48 87.0966 236.004 85.3566 234.57 83.5099C233.11 81.6325 231.774 79.6617 230.57 77.6099C229.292 75.4909 228.284 73.2198 227.57 70.8499C227.207 69.6337 227.031 68.3691 227.05 67.0999C227.072 66.4552 227.18 65.8162 227.37 65.1999C227.574 64.5793 227.904 64.0076 228.34 63.5206C228.775 63.0336 229.306 62.6418 229.9 62.3699C230.492 62.1147 231.113 61.9366 231.75 61.8399C233.008 61.6793 234.282 61.7097 235.53 61.9299C237.966 62.3717 240.337 63.114 242.59 64.1399C244.766 65.11 246.877 66.219 248.91 67.4599C250.91 68.6699 252.8 69.9499 254.59 71.2699C257.984 73.7786 261.196 76.5255 264.2 79.4899C266.828 82.0609 269.271 84.8144 271.51 87.7299C273.373 90.1289 275.013 92.6929 276.41 95.3899C277.493 97.4144 278.259 99.5931 278.68 101.85C278.819 102.676 278.853 103.516 278.78 104.35C278.764 104.525 278.737 104.698 278.7 104.87C278.683 105.03 278.65 105.187 278.6 105.34L278.48 105.76C278.48 105.89 278.38 106.01 278.33 106.13C278.253 106.334 278.152 106.529 278.03 106.71L277.9 106.93L277.77 107.1L277.55 107.4Z" fill="#F2C94C"/>
<path d="M286.62 85.49V85.11V84.89C286.62 84.82 286.62 84.73 286.57 84.64C286.531 84.4257 286.474 84.215 286.4 84.01C286.4 83.89 286.32 83.77 286.27 83.64L286.07 83.25C286.001 83.107 285.921 82.9699 285.83 82.84C285.744 82.6866 285.647 82.5396 285.54 82.4C285.037 81.7361 284.452 81.138 283.8 80.62C281.977 79.2308 279.954 78.125 277.8 77.34C274.946 76.2686 272.001 75.4586 269 74.92C265.391 74.2431 261.739 73.8187 258.07 73.65C253.859 73.4433 249.638 73.5369 245.44 73.93C243.23 74.14 240.97 74.44 238.68 74.87C236.343 75.3014 234.035 75.8792 231.77 76.6C229.422 77.3202 227.171 78.3278 225.07 79.6C224.004 80.2586 223.043 81.0744 222.22 82.02C221.814 82.5044 221.478 83.0429 221.22 83.62C220.96 84.1967 220.825 84.8222 220.825 85.455C220.825 86.0877 220.96 86.7132 221.22 87.29C221.481 87.8651 221.818 88.4031 222.22 88.89C223.044 89.8385 224.008 90.6547 225.08 91.31C227.176 92.592 229.428 93.6002 231.78 94.31C234.043 95.0387 236.352 95.6199 238.69 96.05C240.97 96.47 243.24 96.78 245.45 96.99C249.648 97.3781 253.869 97.4716 258.08 97.27C261.744 97.1205 265.393 96.7162 269 96.06C271.981 95.5148 274.906 94.7015 277.74 93.63C279.897 92.8529 281.921 91.7465 283.74 90.35C284.397 89.8371 284.982 89.2384 285.48 88.57C285.587 88.4338 285.684 88.2901 285.77 88.14C285.861 88.0101 285.941 87.8729 286.01 87.73L286.21 87.34C286.21 87.21 286.3 87.08 286.34 86.97C286.414 86.7649 286.471 86.5542 286.51 86.34C286.51 86.25 286.51 86.16 286.56 86.08V85.87V85.49C286.56 85.49 286.56 85.62 286.56 85.87V86.09C286.56 86.17 286.56 86.25 286.56 86.34C286.529 86.5583 286.476 86.7728 286.4 86.98C286.4 87.09 286.32 87.22 286.27 87.35L286.08 87.74C286.01 87.8853 285.93 88.0257 285.84 88.16C285.74 88.3 285.67 88.46 285.55 88.6C285.048 89.2705 284.463 89.8752 283.81 90.4C281.994 91.8081 279.97 92.9248 277.81 93.71C274.975 94.7932 272.046 95.6133 269.06 96.16C265.445 96.8495 261.786 97.2806 258.11 97.45C253.896 97.6585 249.672 97.5716 245.47 97.19C243.25 96.98 240.98 96.67 238.69 96.19C236.344 95.7681 234.029 95.1902 231.76 94.46C229.401 93.7419 227.141 92.7342 225.03 91.46C223.944 90.7918 222.966 89.9623 222.13 89C221.722 88.5059 221.386 87.9573 221.13 87.37C220.86 86.7748 220.72 86.1287 220.72 85.475C220.72 84.8212 220.86 84.1751 221.13 83.58C221.386 82.9927 221.722 82.444 222.13 81.95C222.958 80.9962 223.926 80.1735 225 79.51C227.107 78.2279 229.368 77.2197 231.73 76.51C234.001 75.7824 236.315 75.2012 238.66 74.77C240.95 74.35 243.22 74.04 245.44 73.83C249.642 73.4482 253.866 73.3613 258.08 73.57C261.755 73.7411 265.414 74.1688 269.03 74.85C272.015 75.4057 274.943 76.229 277.78 77.31C279.939 78.0974 281.963 79.214 283.78 80.62C284.436 81.1422 285.02 81.7472 285.52 82.42C285.64 82.56 285.71 82.72 285.81 82.86C285.898 82.9922 285.978 83.129 286.05 83.27L286.24 83.67C286.29 83.8 286.33 83.92 286.37 84.04C286.447 84.2468 286.501 84.4614 286.53 84.68C286.53 84.77 286.53 84.85 286.53 84.93V85.14C286.62 85.36 286.62 85.49 286.62 85.49Z" fill="#F2C94C"/>
<path d="M274.6 58.21L274.27 58L274.09 57.89L273.86 57.77C273.667 57.67 273.467 57.5864 273.26 57.52L272.89 57.4L272.46 57.32C272.303 57.2806 272.142 57.2571 271.98 57.25C271.807 57.2392 271.633 57.2392 271.46 57.25C270.628 57.2352 269.798 57.3293 268.99 57.53C266.777 58.1116 264.665 59.0289 262.73 60.25C260.148 61.8342 257.715 63.6482 255.46 65.67C252.712 68.1091 250.138 70.7389 247.76 73.54C245.019 76.7373 242.509 80.1259 240.25 83.68C239.06 85.56 237.91 87.54 236.85 89.61C235.759 91.7086 234.807 93.8766 234 96.1C233.133 98.4024 232.558 100.804 232.29 103.25C232.156 104.498 232.214 105.759 232.46 106.99C232.597 107.602 232.812 108.193 233.1 108.75C233.414 109.302 233.827 109.79 234.32 110.19C234.824 110.563 235.394 110.838 236 111C236.612 111.148 237.241 111.212 237.87 111.19C239.125 111.12 240.363 110.86 241.54 110.42C243.826 109.551 245.996 108.402 248 107C249.96 105.657 251.831 104.187 253.6 102.6C255.34 101.05 256.97 99.45 258.49 97.83C261.384 94.7522 264.057 91.4741 266.49 88.02C268.609 85.0214 270.514 81.8769 272.19 78.61C273.588 75.9195 274.739 73.108 275.63 70.21C276.33 68.0314 276.69 65.7582 276.7 63.47C276.693 62.6388 276.579 61.812 276.36 61.01C276.36 60.83 276.25 60.67 276.2 60.51C276.15 60.3596 276.089 60.2126 276.02 60.07L275.83 59.68C275.76 59.56 275.68 59.45 275.62 59.34C275.498 59.1581 275.365 58.9844 275.22 58.82L275.06 58.63L274.9 58.48L274.62 58.22L274.91 58.47L275.07 58.61L275.24 58.81C275.389 58.9704 275.523 59.1445 275.64 59.33L275.86 59.66C275.92 59.78 275.98 59.92 276.05 60.05C276.122 60.1949 276.182 60.3454 276.23 60.5C276.297 60.6595 276.354 60.8232 276.4 60.99C276.63 61.7969 276.751 62.631 276.76 63.47C276.754 65.7667 276.4 68.0493 275.71 70.24C274.823 73.1412 273.675 75.956 272.28 78.65C270.614 81.9301 268.712 85.0851 266.59 88.09C264.179 91.5533 261.523 94.8384 258.64 97.92C257.11 99.55 255.49 101.15 253.74 102.7C251.97 104.296 250.096 105.773 248.13 107.12C246.102 108.541 243.905 109.703 241.59 110.58C240.403 111.023 239.155 111.282 237.89 111.35C237.244 111.377 236.598 111.313 235.97 111.16C235.343 110.991 234.752 110.706 234.23 110.32C233.722 109.912 233.297 109.409 232.98 108.84C232.675 108.27 232.449 107.661 232.31 107.03C232.067 105.785 232.014 104.511 232.15 103.25C232.421 100.791 232.999 98.3754 233.87 96.06C234.682 93.8194 235.641 91.6347 236.74 89.52C237.81 87.45 238.96 85.47 240.15 83.59C242.422 80.0342 244.942 76.6426 247.69 73.44C250.072 70.636 252.652 68.006 255.41 65.57C257.678 63.5535 260.121 61.743 262.71 60.16C264.655 58.9372 266.777 58.0199 269 57.44C269.815 57.246 270.652 57.1553 271.49 57.17C271.67 57.17 271.84 57.17 272.01 57.17C272.171 57.1821 272.332 57.2055 272.49 57.24L272.91 57.33L273.29 57.45C273.497 57.5194 273.698 57.6064 273.89 57.71L274.12 57.83L274.3 57.95L274.6 58.21Z" fill="#F2C94C"/>
<path d="M220.42 99.08C220.534 99.1934 220.624 99.3281 220.686 99.4766C220.748 99.625 220.779 99.7842 220.779 99.945C220.779 100.106 220.748 100.265 220.686 100.413C220.624 100.562 220.534 100.697 220.42 100.81C220.188 101.035 219.878 101.162 219.555 101.162C219.232 101.162 218.921 101.035 218.69 100.81C218.576 100.696 218.486 100.562 218.425 100.413C218.363 100.265 218.332 100.106 218.332 99.945C218.332 99.7843 218.363 99.6253 218.425 99.4768C218.486 99.3284 218.576 99.1936 218.69 99.08C218.803 98.9664 218.938 98.8763 219.087 98.8148C219.235 98.7533 219.394 98.7217 219.555 98.7217C219.715 98.7217 219.875 98.7533 220.023 98.8148C220.171 98.8763 220.306 98.9664 220.42 99.08Z" fill="#F2C94C"/>
<path d="M289.41 61.19C289.418 61.4348 289.353 61.6764 289.222 61.8839C289.092 62.0914 288.903 62.2552 288.679 62.3545C288.455 62.4537 288.207 62.4839 287.966 62.441C287.724 62.3982 287.501 62.2843 287.325 62.114C287.149 61.9437 287.028 61.7247 286.977 61.4851C286.927 61.2454 286.949 60.9961 287.04 60.769C287.132 60.5419 287.29 60.3474 287.493 60.2104C287.696 60.0734 287.935 60.0001 288.18 60C288.499 59.9998 288.806 60.1239 289.036 60.346C289.265 60.5681 289.4 60.8708 289.41 61.19Z" fill="#F2C94C"/>
<path d="M228.14 103.1C228.14 103.161 228.122 103.221 228.088 103.272C228.054 103.323 228.005 103.363 227.949 103.386C227.892 103.41 227.83 103.416 227.77 103.404C227.709 103.392 227.654 103.363 227.611 103.319C227.567 103.276 227.538 103.221 227.526 103.16C227.514 103.1 227.52 103.038 227.544 102.981C227.567 102.925 227.607 102.876 227.658 102.842C227.709 102.808 227.769 102.79 227.83 102.79C227.912 102.79 227.991 102.823 228.049 102.881C228.107 102.939 228.14 103.018 228.14 103.1Z" fill="#F2C94C"/>
<path d="M234.77 68.84C234.768 68.9009 234.748 68.9598 234.713 69.0094C234.678 69.0591 234.629 69.0973 234.572 69.1192C234.515 69.1411 234.453 69.1459 234.394 69.1328C234.334 69.1197 234.28 69.0894 234.238 69.0457C234.195 69.002 234.167 68.9468 234.156 68.8869C234.144 68.8271 234.151 68.7653 234.175 68.7092C234.199 68.6531 234.238 68.6053 234.289 68.5717C234.34 68.538 234.399 68.5201 234.46 68.52C234.502 68.52 234.543 68.5283 234.581 68.5445C234.62 68.5607 234.654 68.5845 234.683 68.6143C234.712 68.6442 234.735 68.6795 234.75 68.7183C234.765 68.7571 234.772 68.7985 234.77 68.84Z" fill="#F2C94C"/>
<path d="M283.26 85.4899C283.26 85.5512 283.242 85.6112 283.208 85.6622C283.174 85.7131 283.125 85.7529 283.069 85.7763C283.012 85.7998 282.95 85.8059 282.89 85.794C282.83 85.782 282.774 85.7525 282.731 85.7091C282.688 85.6658 282.658 85.6105 282.646 85.5504C282.634 85.4903 282.64 85.4279 282.664 85.3713C282.687 85.3147 282.727 85.2662 282.778 85.2322C282.829 85.1981 282.889 85.1799 282.95 85.1799C283.032 85.1799 283.111 85.2126 283.169 85.2707C283.227 85.3289 283.26 85.4077 283.26 85.4899Z" fill="#F2C94C"/>
<path d="M287.58 71C287.58 71.0613 287.562 71.1212 287.528 71.1722C287.494 71.2232 287.445 71.2629 287.389 71.2864C287.332 71.3099 287.27 71.316 287.21 71.304C287.149 71.2921 287.094 71.2626 287.051 71.2192C287.007 71.1758 286.978 71.1206 286.966 71.0605C286.954 71.0003 286.96 70.938 286.984 70.8814C287.007 70.8247 287.047 70.7763 287.098 70.7422C287.149 70.7082 287.209 70.69 287.27 70.69C287.352 70.69 287.431 70.7227 287.489 70.7808C287.547 70.8389 287.58 70.9178 287.58 71Z" fill="#F2C94C"/>
<path d="M266.64 92.3199H262.8V71.4099C262.8 69.0415 261.859 66.7701 260.185 65.0954C258.51 63.4207 256.238 62.4799 253.87 62.4799C251.502 62.4799 249.23 63.4207 247.556 65.0954C245.881 66.7701 244.94 69.0415 244.94 71.4099V92.3199H241.1V71.4099C241.1 68.0231 242.445 64.775 244.84 62.3801C247.235 59.9853 250.483 58.6399 253.87 58.6399C257.257 58.6399 260.505 59.9853 262.9 62.3801C265.295 64.775 266.64 68.0231 266.64 71.4099V92.3199Z" fill="#F2C94C"/>
<g opacity="0.3">
<path opacity="0.3" d="M266.64 92.3199H262.8V71.4099C262.8 69.0415 261.859 66.7701 260.185 65.0954C258.51 63.4207 256.238 62.4799 253.87 62.4799C251.502 62.4799 249.23 63.4207 247.556 65.0954C245.881 66.7701 244.94 69.0415 244.94 71.4099V92.3199H241.1V71.4099C241.1 68.0231 242.445 64.775 244.84 62.3801C247.235 59.9853 250.483 58.6399 253.87 58.6399C257.257 58.6399 260.505 59.9853 262.9 62.3801C265.295 64.775 266.64 68.0231 266.64 71.4099V92.3199Z" fill="black"/>
</g>
<path d="M268.83 83.02H238.91C237.668 83.02 236.66 84.0274 236.66 85.27V102.85C236.66 104.093 237.668 105.1 238.91 105.1H268.83C270.073 105.1 271.08 104.093 271.08 102.85V85.27C271.08 84.0274 270.073 83.02 268.83 83.02Z" fill="#F2C94C"/>
<g opacity="0.3">
<path opacity="0.3" d="M256.75 91.1801C256.752 90.6441 256.604 90.1182 256.323 89.6617C256.043 89.2052 255.64 88.836 255.161 88.5959C254.682 88.3557 254.145 88.254 253.611 88.3022C253.077 88.3504 252.568 88.5466 252.139 88.8688C251.711 89.1909 251.381 89.6262 251.186 90.1257C250.992 90.6252 250.941 91.169 251.039 91.696C251.136 92.2229 251.379 92.7122 251.74 93.1086C252.101 93.5051 252.565 93.793 253.08 93.9401V98.2401H254.65V93.9401C255.253 93.7706 255.783 93.4096 256.162 92.9116C256.541 92.4136 256.748 91.8058 256.75 91.1801Z" fill="black"/>
</g>
<path d="M238.49 103C238.42 103 238.35 99.31 238.35 94.77C238.35 90.23 238.42 86.55 238.49 86.55C238.56 86.55 238.64 90.23 238.64 94.77C238.64 99.31 238.57 103 238.49 103Z" fill="#FAFAFA"/>
<path d="M251.62 94.87C251.493 94.8338 251.377 94.7688 251.28 94.68C250.999 94.4622 250.75 94.2064 250.54 93.92C250.185 93.4496 249.938 92.9065 249.818 92.3297C249.697 91.7529 249.705 91.1565 249.842 90.5832C249.979 90.0099 250.24 89.4739 250.608 89.0135C250.976 88.5531 251.441 88.1797 251.97 87.92C252.285 87.7576 252.622 87.643 252.97 87.58C253.22 87.58 253.36 87.58 253.36 87.58C252.916 87.7245 252.485 87.9051 252.07 88.12C251.582 88.3893 251.155 88.7576 250.818 89.2014C250.481 89.6451 250.24 90.1545 250.111 90.6969C249.982 91.2392 249.967 91.8026 250.069 92.3507C250.17 92.8989 250.385 93.4198 250.7 93.88C250.98 94.2335 251.288 94.5646 251.62 94.87Z" fill="#FAFAFA"/>
<path d="M304.97 124.02H199C193.853 124.02 189.68 128.193 189.68 133.34V134.48C189.68 139.627 193.853 143.8 199 143.8H304.97C310.117 143.8 314.29 139.627 314.29 134.48V133.34C314.29 128.193 310.117 124.02 304.97 124.02Z" fill="#F5F5F5"/>
<path d="M305.88 151.15H199.91C194.763 151.15 190.59 155.323 190.59 160.47V161.61C190.59 166.757 194.763 170.93 199.91 170.93H305.88C311.027 170.93 315.2 166.757 315.2 161.61V160.47C315.2 155.323 311.027 151.15 305.88 151.15Z" fill="#F5F5F5"/>
<path d="M209.37 133.76V130.89H210.56V133.72C210.56 134.72 210.98 135.09 211.69 135.09C212.4 135.09 212.84 134.69 212.84 133.72V130.89H214V133.76C214.021 134.077 213.977 134.394 213.87 134.693C213.763 134.992 213.596 135.266 213.379 135.498C213.162 135.73 212.899 135.914 212.608 136.041C212.317 136.167 212.003 136.232 211.685 136.232C211.368 136.232 211.054 136.167 210.762 136.041C210.471 135.914 210.209 135.73 209.992 135.498C209.775 135.266 209.608 134.992 209.501 134.693C209.394 134.394 209.349 134.077 209.37 133.76Z" fill="#263238"/>
<path d="M214.71 135.65L215.09 134.83C215.506 135.074 215.978 135.205 216.46 135.21C216.99 135.21 217.18 135.07 217.18 134.85C217.18 134.21 214.81 134.85 214.81 133.29C214.81 132.55 215.48 132.02 216.63 132.02C217.154 132.008 217.672 132.125 218.14 132.36L217.76 133.18C217.416 132.983 217.026 132.879 216.63 132.88C216.12 132.88 215.9 133.04 215.9 133.25C215.9 133.92 218.27 133.25 218.27 134.82C218.27 135.55 217.59 136.07 216.42 136.07C215.823 136.082 215.234 135.937 214.71 135.65Z" fill="#263238"/>
<path d="M222.81 134.37H219.81C219.872 134.616 220.02 134.831 220.227 134.977C220.435 135.122 220.688 135.187 220.94 135.16C221.124 135.168 221.307 135.139 221.479 135.073C221.651 135.008 221.808 134.908 221.94 134.78L222.55 135.43C222.241 135.724 221.857 135.927 221.439 136.015C221.022 136.103 220.588 136.074 220.186 135.93C219.785 135.785 219.431 135.532 219.165 135.198C218.899 134.865 218.731 134.464 218.68 134.04C218.68 133.769 218.735 133.5 218.841 133.251C218.948 133.002 219.104 132.776 219.301 132.589C219.497 132.402 219.73 132.257 219.984 132.163C220.238 132.068 220.509 132.027 220.78 132.04C221.047 132.033 221.312 132.08 221.561 132.178C221.809 132.275 222.036 132.422 222.227 132.608C222.418 132.794 222.57 133.017 222.673 133.263C222.777 133.509 222.83 133.773 222.83 134.04C222.83 134.15 222.81 134.27 222.81 134.37ZM219.81 133.7H221.74C221.683 133.488 221.557 133.301 221.383 133.168C221.208 133.035 220.995 132.962 220.775 132.962C220.556 132.962 220.342 133.035 220.168 133.168C219.993 133.301 219.868 133.488 219.81 133.7Z" fill="#263238"/>
<path d="M226 132V133H225.74C225.601 132.999 225.463 133.028 225.335 133.084C225.208 133.14 225.093 133.221 224.999 133.324C224.905 133.427 224.833 133.548 224.789 133.68C224.744 133.812 224.727 133.951 224.74 134.09V136H223.6V132.07H224.69V132.59C224.846 132.394 225.046 132.239 225.274 132.136C225.501 132.034 225.75 131.987 226 132Z" fill="#263238"/>
<path d="M230.73 133.76V136H229.59V133.93C229.59 133.29 229.3 133 228.79 133C228.28 133 227.85 133.33 227.85 134.06V136H226.71V132.07H227.8V132.53C227.967 132.355 228.169 132.219 228.394 132.129C228.618 132.039 228.859 131.999 229.1 132.01C229.329 131.994 229.558 132.03 229.771 132.114C229.984 132.198 230.176 132.329 230.332 132.497C230.488 132.664 230.605 132.865 230.674 133.083C230.743 133.302 230.762 133.533 230.73 133.76Z" fill="#263238"/>
<path d="M235.24 133.77V136H234.17V135.51C234.038 135.701 233.857 135.853 233.646 135.95C233.434 136.047 233.201 136.085 232.97 136.06C232.05 136.06 231.5 135.55 231.5 134.87C231.5 134.19 231.99 133.69 233.19 133.69H234.1C234.1 133.2 233.81 132.92 233.19 132.92C232.785 132.916 232.389 133.043 232.06 133.28L231.65 132.49C232.156 132.163 232.748 131.996 233.35 132.01C234.54 132 235.24 132.58 235.24 133.77ZM234.1 134.77V134.37H233.32C232.78 134.37 232.61 134.56 232.61 134.83C232.61 135.1 232.86 135.3 233.26 135.3C233.438 135.314 233.617 135.27 233.768 135.175C233.919 135.079 234.036 134.937 234.1 134.77Z" fill="#263238"/>
<path d="M242.91 133.76V136H241.77V133.93C241.77 133.29 241.49 133 241.03 133C240.57 133 240.16 133.33 240.16 134V136H239V133.93C239 133.29 238.73 133 238.25 133C237.77 133 237.39 133.33 237.39 134V136H236.25V132.07H237.34V132.52C237.496 132.352 237.687 132.219 237.899 132.131C238.112 132.043 238.34 132.002 238.57 132.01C238.823 131.996 239.076 132.048 239.304 132.16C239.531 132.272 239.726 132.441 239.87 132.65C240.042 132.442 240.259 132.275 240.505 132.164C240.752 132.053 241.02 132.001 241.29 132.01C241.519 131.992 241.749 132.026 241.962 132.11C242.176 132.194 242.368 132.324 242.524 132.493C242.68 132.661 242.795 132.863 242.862 133.082C242.929 133.302 242.945 133.533 242.91 133.76Z" fill="#263238"/>
<path d="M247.81 134.37H244.81C244.861 134.62 245.005 134.84 245.213 134.987C245.421 135.134 245.678 135.196 245.93 135.16C246.114 135.168 246.297 135.138 246.469 135.073C246.641 135.007 246.798 134.908 246.93 134.78L247.53 135.43C247.222 135.725 246.838 135.929 246.421 136.017C246.004 136.106 245.57 136.076 245.169 135.932C244.768 135.787 244.415 135.534 244.15 135.2C243.885 134.865 243.719 134.464 243.67 134.04C243.67 133.769 243.724 133.5 243.831 133.251C243.938 133.002 244.094 132.776 244.291 132.589C244.487 132.402 244.72 132.257 244.974 132.163C245.228 132.068 245.499 132.027 245.77 132.04C246.3 132.04 246.809 132.251 247.184 132.626C247.559 133.001 247.77 133.51 247.77 134.04C247.83 134.15 247.82 134.27 247.81 134.37ZM244.81 133.7H246.75C246.696 133.484 246.571 133.292 246.395 133.155C246.219 133.018 246.003 132.943 245.78 132.943C245.557 132.943 245.34 133.018 245.165 133.155C244.989 133.292 244.864 133.484 244.81 133.7Z" fill="#263238"/>
<path d="M255.35 134C255.35 135.31 254.75 136.05 253.85 136.05C253.638 136.065 253.427 136.012 253.247 135.898C253.067 135.785 252.928 135.618 252.85 135.42C252.717 135.627 252.531 135.794 252.311 135.905C252.091 136.016 251.846 136.066 251.6 136.05C251.134 136.016 250.699 135.806 250.381 135.464C250.063 135.122 249.886 134.672 249.886 134.205C249.886 133.738 250.063 133.288 250.381 132.946C250.699 132.604 251.134 132.394 251.6 132.36C251.811 132.35 252.021 132.389 252.215 132.472C252.409 132.555 252.582 132.681 252.72 132.84V132.41H253.72V134.78C253.72 135.13 253.87 135.25 254.07 135.25C254.27 135.25 254.61 134.86 254.61 134.01C254.613 133.662 254.543 133.317 254.404 132.998C254.266 132.678 254.061 132.392 253.805 132.156C253.549 131.92 253.246 131.741 252.916 131.63C252.586 131.519 252.237 131.478 251.89 131.51C251.187 131.51 250.513 131.789 250.016 132.286C249.519 132.783 249.24 133.457 249.24 134.16C249.24 134.863 249.519 135.537 250.016 136.034C250.513 136.531 251.187 136.81 251.89 136.81C252.389 136.811 252.881 136.698 253.33 136.48L253.56 137.16C253.035 137.395 252.465 137.515 251.89 137.51C251.002 137.51 250.149 137.157 249.521 136.529C248.893 135.9 248.54 135.048 248.54 134.16C248.54 133.271 248.893 132.419 249.521 131.791C250.149 131.163 251.002 130.81 251.89 130.81C252.331 130.774 252.774 130.83 253.192 130.974C253.61 131.118 253.994 131.347 254.319 131.647C254.644 131.946 254.904 132.31 255.081 132.715C255.259 133.12 255.35 133.558 255.35 134ZM252.74 134.2C252.754 134.072 252.741 133.942 252.701 133.82C252.661 133.697 252.595 133.585 252.508 133.49C252.421 133.395 252.314 133.32 252.196 133.27C252.077 133.22 251.949 133.196 251.82 133.2C251.692 133.197 251.566 133.223 251.449 133.273C251.332 133.324 251.227 133.4 251.142 133.494C251.056 133.589 250.992 133.701 250.954 133.823C250.916 133.945 250.904 134.073 250.92 134.2C250.92 134.441 251.016 134.673 251.187 134.843C251.357 135.014 251.589 135.11 251.83 135.11C252.071 135.11 252.303 135.014 252.474 134.843C252.644 134.673 252.74 134.441 252.74 134.2Z" fill="#263238"/>
<path d="M262.8 133.76V136H261.66V133.93C261.66 133.29 261.38 133 260.91 133C260.44 133 260.05 133.33 260.05 134V136H258.9V133.93C258.9 133.29 258.63 133 258.16 133C257.69 133 257.3 133.33 257.3 134V136H256.16V132.07H257.25V132.52C257.407 132.352 257.597 132.219 257.81 132.131C258.022 132.043 258.251 132.002 258.48 132.01C258.732 131.995 258.984 132.046 259.21 132.158C259.436 132.271 259.629 132.44 259.77 132.65C259.943 132.443 260.161 132.278 260.407 132.167C260.653 132.057 260.921 132.003 261.19 132.01C261.418 131.994 261.647 132.029 261.859 132.113C262.072 132.198 262.262 132.329 262.417 132.497C262.572 132.665 262.686 132.866 262.753 133.085C262.819 133.303 262.835 133.534 262.8 133.76Z" fill="#263238"/>
<path d="M267.3 133.77V136H266.24V135.51C266.107 135.7 265.926 135.852 265.715 135.949C265.504 136.045 265.271 136.084 265.04 136.06C264.12 136.06 263.57 135.55 263.57 134.87C263.57 134.19 264.06 133.69 265.26 133.69H266.16C266.16 133.2 265.87 132.92 265.26 132.92C264.852 132.921 264.454 133.046 264.12 133.28L263.72 132.49C264.223 132.165 264.811 131.998 265.41 132.01C266.61 132 267.3 132.58 267.3 133.77ZM266.16 134.77V134.37H265.38C264.85 134.37 264.68 134.56 264.68 134.83C264.68 135.1 264.92 135.3 265.32 135.3C265.498 135.314 265.676 135.27 265.828 135.174C265.979 135.079 266.096 134.937 266.16 134.77Z" fill="#263238"/>
<path d="M268.2 130.89C268.203 130.802 268.223 130.715 268.26 130.635C268.297 130.555 268.35 130.484 268.415 130.425C268.481 130.366 268.557 130.321 268.641 130.293C268.724 130.264 268.812 130.253 268.9 130.26C268.987 130.25 269.076 130.259 269.16 130.285C269.244 130.311 269.321 130.353 269.388 130.411C269.454 130.468 269.508 130.538 269.547 130.617C269.585 130.696 269.607 130.782 269.61 130.87C269.612 130.961 269.594 131.052 269.559 131.137C269.523 131.221 269.47 131.297 269.403 131.359C269.336 131.421 269.256 131.469 269.17 131.498C269.083 131.528 268.991 131.538 268.9 131.53C268.812 131.537 268.722 131.525 268.638 131.496C268.554 131.468 268.477 131.422 268.412 131.362C268.346 131.302 268.293 131.229 268.257 131.148C268.221 131.067 268.201 130.979 268.2 130.89ZM268.33 132.08H269.47V136H268.33V132.08Z" fill="#263238"/>
<path d="M270.53 130.59H271.67V136H270.53V130.59Z" fill="#263238"/>
<path d="M272.46 135.35C272.481 135.177 272.564 135.019 272.694 134.903C272.824 134.788 272.991 134.724 273.165 134.724C273.339 134.724 273.506 134.788 273.636 134.903C273.766 135.019 273.849 135.177 273.87 135.35C273.882 135.45 273.872 135.551 273.842 135.646C273.812 135.742 273.763 135.83 273.696 135.905C273.629 135.981 273.548 136.041 273.456 136.082C273.364 136.123 273.265 136.144 273.165 136.144C273.065 136.144 272.965 136.123 272.874 136.082C272.782 136.041 272.701 135.981 272.634 135.905C272.567 135.83 272.517 135.742 272.487 135.646C272.457 135.551 272.448 135.45 272.46 135.35Z" fill="#263238"/>
<path d="M274.31 134C274.309 133.721 274.366 133.444 274.478 133.188C274.59 132.932 274.755 132.703 274.961 132.514C275.167 132.326 275.411 132.183 275.676 132.094C275.941 132.006 276.222 131.973 276.5 132C276.859 131.974 277.218 132.055 277.532 132.233C277.845 132.411 278.098 132.678 278.26 133L277.38 133.48C277.295 133.317 277.168 133.18 277.011 133.085C276.854 132.99 276.673 132.94 276.49 132.94C276.22 132.966 275.97 133.091 275.787 133.292C275.605 133.493 275.504 133.754 275.504 134.025C275.504 134.296 275.605 134.557 275.787 134.758C275.97 134.959 276.22 135.084 276.49 135.11C276.673 135.11 276.854 135.06 277.011 134.965C277.168 134.87 277.295 134.733 277.38 134.57L278.26 135.06C278.096 135.381 277.842 135.646 277.53 135.824C277.217 136.002 276.859 136.084 276.5 136.06C276.217 136.087 275.931 136.054 275.661 135.962C275.392 135.869 275.146 135.721 274.938 135.526C274.731 135.331 274.568 135.094 274.459 134.831C274.351 134.568 274.3 134.284 274.31 134Z" fill="#263238"/>
<path d="M278.57 134C278.538 133.568 278.636 133.136 278.853 132.761C279.07 132.385 279.394 132.084 279.784 131.895C280.174 131.707 280.612 131.64 281.041 131.704C281.47 131.767 281.869 131.958 282.188 132.252C282.506 132.546 282.729 132.928 282.828 133.35C282.926 133.772 282.895 134.214 282.739 134.619C282.583 135.023 282.309 135.371 281.952 135.617C281.596 135.863 281.173 135.997 280.74 136C280.463 136.024 280.185 135.989 279.922 135.9C279.66 135.81 279.419 135.666 279.214 135.478C279.01 135.29 278.848 135.061 278.737 134.807C278.626 134.552 278.569 134.278 278.57 134ZM281.74 134C281.722 133.807 281.649 133.623 281.529 133.471C281.409 133.319 281.248 133.205 281.064 133.143C280.881 133.081 280.683 133.073 280.495 133.122C280.308 133.17 280.138 133.271 280.007 133.414C279.876 133.557 279.789 133.735 279.758 133.926C279.726 134.117 279.75 134.313 279.828 134.491C279.905 134.668 280.033 134.819 280.195 134.926C280.357 135.032 280.546 135.089 280.74 135.09C280.879 135.091 281.017 135.062 281.145 135.006C281.272 134.951 281.387 134.869 281.481 134.766C281.575 134.664 281.647 134.542 281.691 134.41C281.736 134.279 281.752 134.139 281.74 134Z" fill="#263238"/>
<path d="M290.3 133.76V136H289.16V133.93C289.16 133.29 288.87 133 288.41 133C287.95 133 287.54 133.33 287.54 134V136H286.4V133.93C286.4 133.29 286.13 133 285.66 133C285.19 133 284.79 133.33 284.79 134V136H283.65V132.07H284.74V132.52C284.9 132.348 285.096 132.212 285.313 132.122C285.531 132.032 285.765 131.991 286 132C286.252 131.986 286.503 132.038 286.729 132.15C286.956 132.262 287.149 132.431 287.29 132.64C287.463 132.433 287.681 132.268 287.927 132.157C288.173 132.047 288.44 131.993 288.71 132C288.937 131.987 289.165 132.024 289.375 132.111C289.586 132.197 289.775 132.329 289.927 132.498C290.08 132.667 290.193 132.868 290.257 133.087C290.322 133.305 290.336 133.535 290.3 133.76Z" fill="#263238"/>
<path d="M224.64 161.15L226.49 162.15L225.66 163.54L223.79 162.44V164.49H222.19V162.42L220.32 163.54L219.5 162.15L221.36 161.15L219.5 160.15L220.32 158.76L222.19 159.88V157.8H223.79V159.88L225.66 158.76L226.49 160.15L224.64 161.15Z" fill="#263238"/>
<path d="M232.35 161.15L234.2 162.15L233.37 163.54L231.5 162.44V164.49H229.91V162.42L228.05 163.54L227.23 162.15L229.08 161.15L227.23 160.15L228.05 158.76L229.91 159.88V157.8H231.5V159.88L233.37 158.76L234.2 160.15L232.35 161.15Z" fill="#263238"/>
<path d="M240.06 161.15L241.91 162.15L241.07 163.54L239.21 162.44V164.49H237.61V162.42L235.74 163.54L234.93 162.15L236.78 161.15L234.93 160.15L235.74 158.76L237.61 159.88V157.8H239.21V159.88L241.07 158.76L241.91 160.15L240.06 161.15Z" fill="#263238"/>
<path d="M247.76 161.15L249.61 162.15L248.78 163.54L246.91 162.44V164.49H245.31V162.42L243.44 163.54L242.62 162.15L244.48 161.15L242.62 160.15L243.44 158.76L245.31 159.88V157.8H247V159.88L248.87 158.76L249.7 160.15L247.76 161.15Z" fill="#263238"/>
<path d="M255.47 161.15L257.32 162.15L256.49 163.54L254.62 162.44V164.49H253.03V162.42L251.17 163.54L250.35 162.15L252.2 161.15L250.35 160.15L251.17 158.76L253.03 159.88V157.8H254.62V159.88L256.49 158.76L257.32 160.15L255.47 161.15Z" fill="#263238"/>
<path d="M263.18 161.15L265.03 162.15L264.19 163.54L262.33 162.44V164.49H260.73V162.42L258.86 163.54L258.05 162.15L259.9 161.15L258.05 160.15L258.86 158.76L260.73 159.88V157.8H262.33V159.88L264.19 158.76L265.03 160.15L263.18 161.15Z" fill="#263238"/>
<path d="M270.88 161.15L272.73 162.15L271.9 163.54L270.03 162.44V164.49H268.43V162.42L266.56 163.54L265.74 162.15L267.6 161.15L265.74 160.15L266.56 158.76L268.43 159.88V157.8H270.03V159.88L271.9 158.76L272.73 160.15L270.88 161.15Z" fill="#263238"/>
<path d="M278.59 161.15L280.44 162.15L279.61 163.54L277.74 162.44V164.49H276.15V162.42L274.29 163.54L273.47 162.15L275.32 161.15L273.47 160.15L274.29 158.76L276.15 159.88V157.8H277.74V159.88L279.61 158.76L280.44 160.15L278.59 161.15Z" fill="#263238"/>
<path d="M383.47 388.07C396.56 382.52 411.72 371.58 418.47 358.18C403.945 364.205 391.695 374.667 383.47 388.07Z" fill="#263238"/>
<path d="M386.26 367.27C399.35 361.71 414.5 350.78 421.26 337.38C406.729 343.396 394.477 353.86 386.26 367.27Z" fill="#263238"/>
<path d="M390 347C403.1 341.44 418.25 330.51 425 317.1C410.474 323.129 398.224 333.594 390 347Z" fill="#263238"/>
<path d="M394.79 325.86C407.14 318.53 420.91 305.59 426.04 291.38C412.312 299.37 401.396 311.415 394.79 325.86Z" fill="#263238"/>
<path d="M399.87 309.65C408.87 297.88 417.26 280.36 417.15 265.18C407.144 277.983 401.134 293.45 399.87 309.65Z" fill="#263238"/>
<path d="M397.35 317.35C395.53 301.44 389.35 281.42 378.83 269.49C380.606 286.814 387.002 303.343 397.35 317.35Z" fill="#263238"/>
<path d="M393.12 334.76C389.91 318.35 381.82 298.06 369.88 286.55C373.146 304.419 381.175 321.075 393.12 334.76Z" fill="#263238"/>
<path d="M388.26 356C385.05 339.59 377 319.29 365 307.78C368.275 325.653 376.31 342.312 388.26 356Z" fill="#263238"/>
<path d="M384.36 382.06C381.15 365.65 373.05 345.36 361.12 333.85C364.386 351.719 372.415 368.375 384.36 382.06Z" fill="#263238"/>
<path d="M400.48 306.53C400.431 306.604 400.394 306.685 400.37 306.77C400.31 306.97 400.23 307.21 400.13 307.51C399.91 308.2 399.6 309.14 399.22 310.35C398.43 312.81 397.37 316.41 396.12 320.86C394.87 325.31 393.49 330.66 392.07 336.61C390.65 342.56 389.24 349.15 387.93 356.09C386.62 363.03 385.57 369.68 384.71 375.75C383.85 381.82 383.22 387.28 382.77 391.89C382.32 396.5 382 400.23 381.84 402.81C381.76 404.07 381.7 405.07 381.65 405.81C381.65 406.12 381.65 406.38 381.65 406.58C381.639 406.67 381.639 406.76 381.65 406.85C381.675 406.765 381.691 406.678 381.7 406.59C381.7 406.38 381.75 406.13 381.78 405.82C381.85 405.1 381.95 404.11 382.07 402.82C382.29 400.24 382.66 396.52 383.16 391.92C383.66 387.32 384.35 381.86 385.21 375.8C386.07 369.74 387.21 363.11 388.46 356.17C389.71 349.23 391.18 342.67 392.55 336.71C393.92 330.75 395.29 325.41 396.55 320.95C397.81 316.49 398.76 312.88 399.49 310.4C399.84 309.18 400.11 308.22 400.31 307.53C400.39 307.22 400.45 306.98 400.51 306.78C400.504 306.696 400.494 306.613 400.48 306.53Z" fill="#263238"/>
<path d="M377.09 396.74C382.64 385.11 386.68 368.74 383.96 356.01C377.753 368.628 375.366 382.784 377.09 396.74Z" fill="#455A64"/>
<path d="M367.86 381.69C373.41 370.06 377.45 353.69 374.72 340.95C368.512 353.571 366.128 367.732 367.86 381.69Z" fill="#455A64"/>
<path d="M359.58 366.38C365.13 354.75 369.17 338.38 366.44 325.64C360.232 338.262 357.848 352.422 359.58 366.38Z" fill="#455A64"/>
<path d="M351.42 349.87C355.54 337.56 357.62 320.79 353.42 308.51C348.761 321.812 348.066 336.181 351.42 349.87Z" fill="#455A64"/>
<path d="M346.11 336.35C345.7 323.26 341.85 306.86 333.72 297.19C333.902 311.179 338.212 324.802 346.11 336.35Z" fill="#455A64"/>
<path d="M348.56 342.84C338.93 333.75 324.29 324.73 311.13 323.55C321.423 333.542 334.449 340.255 348.56 342.84Z" fill="#455A64"/>
<path d="M355.06 356.61C344.26 348.06 328.23 340.03 314.37 340C325.984 349.453 340.149 355.235 355.06 356.61Z" fill="#455A64"/>
<path d="M363.17 373.22C352.38 364.67 336.35 356.64 322.48 356.61C334.095 366.061 348.259 371.843 363.17 373.22Z" fill="#455A64"/>
<path d="M374.48 392.34C363.69 383.79 347.65 375.76 333.79 375.73C345.404 385.183 359.569 390.965 374.48 392.34Z" fill="#455A64"/>
<path d="M344.85 334C344.85 334 344.85 334.08 344.91 334.22L345.13 334.84L346.03 337.19C346.82 339.19 348.03 342.19 349.56 345.76C352.64 352.96 357.21 362.76 362.88 373.3C365.72 378.56 368.56 383.49 371.23 387.93C373.9 392.37 376.42 396.3 378.59 399.55C380.76 402.8 382.59 405.43 383.83 407.2C384.45 408.06 384.94 408.75 385.31 409.25L385.7 409.77C385.74 409.835 385.791 409.892 385.85 409.94C385.82 409.87 385.783 409.803 385.74 409.74L385.39 409.19C385.04 408.68 384.58 407.98 383.99 407.09C382.75 405.29 380.99 402.65 378.88 399.36C376.77 396.07 374.28 392.13 371.62 387.7C368.96 383.27 366.15 378.32 363.31 373.07C357.64 362.56 353.04 352.78 349.88 345.63C348.3 342.05 347.05 339.14 346.21 337.12L345.21 334.8C345.1 334.56 345.02 334.36 344.94 334.2L344.85 334Z" fill="#263238"/>
<path d="M350.65 398.14H405.81V408.78H400.14L395.37 439.1H361.27L356.36 408.78H350.65V398.14Z" fill="#F2C94C"/>
<path d="M350.65 408.55C350.65 408.41 362.91 408.3 378.03 408.3C393.15 408.3 405.41 408.41 405.41 408.55C405.41 408.69 393.16 408.81 378.03 408.81C362.9 408.81 350.65 408.7 350.65 408.55Z" fill="#263238"/>
<path d="M34.6802 439.11H25.7302L22.4102 398.81H32.9502L34.6802 439.11Z" fill="#263238"/>
<path d="M112.27 439.11H121.23L124.55 398.81H114L112.27 439.11Z" fill="#263238"/>
<path d="M130.7 403.91L15.46 406.62L12 332.19C11.9176 330.466 12.1853 328.743 12.7867 327.126C13.3882 325.508 14.3111 324.029 15.4998 322.778C16.6884 321.527 18.1182 320.529 19.7028 319.845C21.2875 319.162 22.9942 318.806 24.72 318.8H122.91C124.663 318.801 126.397 319.163 128.004 319.862C129.612 320.562 131.058 321.584 132.253 322.866C133.449 324.148 134.368 325.662 134.954 327.314C135.54 328.966 135.781 330.721 135.66 332.47L130.7 403.91Z" fill="#D11A30"/>
<path d="M136.61 331.93H136.29H135.34L131.71 331.98H118.35C107.07 331.98 91.49 331.87 74.29 332.27C57.08 332.84 41.48 332.75 30.21 332.58C24.57 332.49 20 332.38 16.85 332.28L13.22 332.16H12.28C12.1738 332.175 12.0661 332.175 11.96 332.16C12.0661 332.144 12.1739 332.144 12.28 332.16H13.22H16.85L30.21 332.29C41.49 332.36 57.07 332.4 74.27 331.83C91.49 331.43 107.07 331.62 118.35 331.69L131.71 331.81H135.34H136.29L136.61 331.93Z" fill="#263238"/>
<path d="M53.9998 320C51.4094 320.372 48.8885 321.127 46.5198 322.24C44.2256 323.515 42.1301 325.119 40.2998 327C40.6643 326.304 41.1484 325.678 41.7298 325.15C44.3751 322.382 47.8642 320.571 51.6498 320C52.427 319.861 53.2226 319.861 53.9998 320Z" fill="#263238"/>
<path d="M101.39 184.64L115.47 210.37L136.11 198.83L146.11 202.14C146.11 202.14 120.83 229.59 116.72 231C112.61 232.41 104.83 232.65 100.38 227.09C96.3798 222.02 84.5498 195.41 84.5498 195.41L101.39 184.64Z" fill="#FFBE9D"/>
<path d="M159.38 167.84C159.199 167.618 158.964 167.447 158.698 167.341C158.432 167.236 158.143 167.202 157.86 167.24L148 168.59C147.575 168.655 147.168 168.809 146.806 169.041C146.444 169.274 146.135 169.58 145.9 169.94L125.53 201.26L127.09 202.14L138 201.8L159.71 168.22L159.38 167.84Z" fill="#263238"/>
<path d="M152.43 171.91C152.565 171.99 152.724 172.017 152.878 171.985C153.031 171.954 153.167 171.866 153.26 171.74C153.376 171.634 153.447 171.488 153.458 171.332C153.469 171.175 153.42 171.021 153.32 170.9C153.188 170.816 153.029 170.786 152.875 170.818C152.722 170.85 152.588 170.94 152.5 171.07C152.38 171.173 152.306 171.318 152.293 171.476C152.28 171.633 152.329 171.789 152.43 171.91Z" fill="white"/>
<path d="M159.69 168.22C159.067 168.394 158.432 168.521 157.79 168.6L152.59 169.4L149 169.93C148.697 169.957 148.403 170.051 148.141 170.205C147.878 170.359 147.652 170.569 147.48 170.82L146.32 172.62C144.71 175.1 142.96 177.81 141.11 180.62C137.41 186.3 134.02 191.43 131.55 195.12L128.55 199.48C128.213 200.032 127.824 200.551 127.39 201.03C127.682 200.45 128.017 199.891 128.39 199.36L131.19 194.89C133.57 191.14 136.9 185.98 140.61 180.29L145.85 172.29L147.04 170.49C147.252 170.182 147.53 169.925 147.853 169.739C148.177 169.552 148.538 169.439 148.91 169.41L152.52 168.95L157.75 168.33C158.393 168.245 159.042 168.208 159.69 168.22Z" fill="#455A64"/>
<path d="M148.8 179.42C148.8 179.42 147.93 179.26 147.45 181.66C146.97 184.06 145.45 190.91 145.45 190.91L140.86 188.48L135.13 189.22C135.13 189.22 133.88 190.38 134.8 191.01C135.72 191.64 139.34 192.28 139.34 192.28L142.01 196.12L134.34 192.43C134.34 192.43 131.78 193.09 132.53 194.66C133.28 196.23 138.45 201.11 138.45 201.11L134.61 200.81L130 198C130 198 128.6 198.06 129.12 199.26C129.64 200.46 134.4 204.77 134.4 204.77L140.16 207.56C140.16 207.56 143.31 207.32 143.61 206.39C143.814 205.659 143.941 204.908 143.99 204.15C143.99 204.15 145.66 203.7 145.99 202.89C146.174 202.209 146.211 201.497 146.1 200.8C146.1 200.8 148.72 201.26 149.1 199.8C149.329 197.977 149.255 196.129 148.88 194.33C148.62 193.21 150 182.76 149.88 182.45C149.76 182.14 150.45 178.73 148.8 179.42Z" fill="#FFBE9D"/>
<path d="M143.83 206.44C143.379 206.724 142.862 206.886 142.33 206.91C139.775 207.281 137.174 206.662 135.06 205.18C134.26 204.61 133.88 204.18 133.93 204.09C133.98 204 135.86 205.52 138.66 206.16C141.46 206.8 143.8 206.26 143.83 206.44Z" fill="#EB996E"/>
<path d="M142.46 204.38C142.37 204.51 141.35 203.97 140.26 203.08C139.17 202.19 138.45 201.29 138.56 201.17C138.67 201.05 139.56 201.75 140.64 202.62C141.72 203.49 142.56 204.24 142.46 204.38Z" fill="#EB996E"/>
<path d="M145.5 199.4C145.41 199.54 144.39 199.02 143.37 198.07C142.35 197.12 141.75 196.16 141.87 196.07C141.99 195.98 142.78 196.74 143.77 197.64C144.76 198.54 145.59 199.27 145.5 199.4Z" fill="#EB996E"/>
<path d="M148.68 195.4C148.53 195.47 147.95 194.4 147.03 193.21C146.11 192.02 145.23 191.21 145.34 191.05C145.45 190.89 146.54 191.59 147.5 192.85C148.163 193.547 148.577 194.443 148.68 195.4Z" fill="#EB996E"/>
<path d="M152.58 380.86C152.656 380.548 152.656 380.222 152.58 379.91C152.424 379.044 152.083 378.222 151.58 377.5C151.418 377.245 151.226 377.011 151.01 376.8C150.867 376.668 150.692 376.577 150.502 376.534C150.312 376.492 150.115 376.501 149.93 376.56C149.82 376.599 149.721 376.663 149.64 376.746C149.558 376.829 149.497 376.93 149.46 377.04C149.39 377.248 149.39 377.472 149.46 377.68C149.594 378.029 149.762 378.363 149.96 378.68C150.33 379.31 150.64 379.93 151.11 380.68C151.252 380.882 151.446 381.042 151.671 381.144C151.896 381.246 152.144 381.286 152.39 381.26C152.839 381.181 153.262 380.992 153.62 380.71C154.28 380.225 154.883 379.669 155.42 379.05C155.68 378.75 155.92 378.43 156.14 378.12C156.385 377.802 156.565 377.438 156.67 377.05C156.73 376.824 156.708 376.584 156.61 376.372C156.511 376.16 156.341 375.99 156.13 375.89C155.932 375.834 155.723 375.828 155.522 375.873C155.321 375.919 155.134 376.014 154.98 376.15C154.524 376.555 154.121 377.015 153.78 377.52C153.274 378.225 152.874 379 152.59 379.82C152.457 380.109 152.389 380.423 152.39 380.74C152.859 379.686 153.431 378.681 154.1 377.74C154.435 377.285 154.825 376.872 155.26 376.51C155.351 376.429 155.46 376.37 155.578 376.339C155.696 376.308 155.82 376.305 155.94 376.33C156.038 376.391 156.113 376.484 156.153 376.592C156.193 376.701 156.195 376.82 156.16 376.93C156.056 377.243 155.897 377.534 155.69 377.79C155.477 378.093 155.247 378.384 155 378.66C154.491 379.246 153.917 379.773 153.29 380.23C153 380.462 152.656 380.617 152.29 380.68C152.141 380.698 151.989 380.674 151.853 380.611C151.717 380.547 151.601 380.446 151.52 380.32C151.12 379.75 150.75 379.04 150.38 378.45C150.2 378.172 150.039 377.881 149.9 377.58C149.81 377.31 149.9 377.14 150.05 377.06C150.48 376.88 150.9 377.37 151.2 377.79C151.849 378.718 152.317 379.759 152.58 380.86Z" fill="#263238"/>
<path d="M128.01 381.7L115.81 408.14L96.1099 399.05L108.74 366.32L128.01 381.7Z" fill="#FFBE9D"/>
<path d="M118.11 406.38L111 420C111 420 129.25 438.86 127.54 443.08L84.6401 422.51L96.4001 395.22L118.11 406.38Z" fill="#455A64"/>
<path d="M98.61 411.76C98.1382 411.687 97.6559 411.79 97.2556 412.05C96.8552 412.31 96.5648 412.709 96.44 413.17C96.3492 413.641 96.4428 414.129 96.7015 414.533C96.9602 414.937 97.3642 415.226 97.83 415.34C98.3319 415.413 98.843 415.298 99.2656 415.018C99.6881 414.737 99.9923 414.311 100.12 413.82C100.163 413.319 100.009 412.822 99.692 412.432C99.3749 412.042 98.9189 411.79 98.42 411.73" fill="#E0E0E0"/>
<g opacity="0.6">
<path opacity="0.6" d="M84.6201 422.49L86.4001 419.07L126.87 440.07C126.87 440.07 128.38 441.82 127.52 443.07L84.6201 422.49Z" fill="white"/>
</g>
<path d="M111.78 420.09C111.68 420.3 110.58 419.89 109.23 420.09C107.88 420.29 106.9 420.89 106.75 420.71C106.6 420.53 107.49 419.47 109.13 419.29C110.77 419.11 111.92 419.92 111.78 420.09Z" fill="#263238"/>
<path d="M115.39 424.11C115.39 424.33 114.26 424.26 113.13 424.8C112 425.34 111.33 426.18 111.13 426.08C110.93 425.98 111.36 424.72 112.79 424.08C114.22 423.44 115.48 423.91 115.39 424.11Z" fill="#263238"/>
<path d="M115.36 430.72C115.15 430.67 115.36 429.49 116.45 428.6C117.54 427.71 118.74 427.72 118.74 427.94C118.74 428.16 117.85 428.48 116.96 429.22C116.07 429.96 115.58 430.8 115.36 430.72Z" fill="#263238"/>
<path d="M113.83 414.85C113.65 415 112.83 414.25 111.6 413.77C110.37 413.29 109.28 413.21 109.26 412.98C109.24 412.75 110.48 412.42 111.91 412.98C113.34 413.54 114 414.74 113.83 414.85Z" fill="#263238"/>
<path d="M122.13 402.85L154.3 322.36C154.3 322.36 153.57 308.62 151.04 304.28C148.51 299.94 71.89 274.65 71.89 274.65C71.89 274.65 52.37 269.95 39.36 274.65C26.35 279.35 16.59 295.65 18.36 304.65C20.13 313.65 27.79 320.32 27.79 320.32L84.18 322L114.89 333.21L94.21 392.47L122.13 402.85Z" fill="#263238"/>
<path d="M150.74 347.85L151.47 376.96L129.78 377.49L126.66 342.55L150.74 347.85Z" fill="#FFBE9D"/>
<path d="M152.76 374.36L152.36 389.71C152.36 389.71 177.06 398.58 177.36 403.12L129.78 403.6L128.32 373.93L152.76 374.36Z" fill="#455A64"/>
<path d="M137.63 387.79C137.174 387.934 136.787 388.241 136.543 388.652C136.299 389.064 136.216 389.551 136.31 390.02C136.435 390.482 136.733 390.879 137.143 391.126C137.553 391.374 138.043 391.454 138.51 391.35C138.999 391.205 139.414 390.879 139.67 390.439C139.927 389.998 140.005 389.477 139.89 388.98C139.696 388.522 139.339 388.153 138.888 387.944C138.437 387.735 137.924 387.701 137.45 387.85" fill="#E0E0E0"/>
<g opacity="0.6">
<path opacity="0.6" d="M129.81 403.6L129.91 399.75L175.49 400.75C175.49 400.75 177.61 401.65 177.39 403.14L129.81 403.6Z" fill="white"/>
</g>
<path d="M153.13 389.46C153.13 389.69 151.96 389.81 150.83 390.56C149.7 391.31 149.09 392.3 148.83 392.22C148.57 392.14 148.95 390.78 150.34 389.89C151.73 389 153.18 389.24 153.13 389.46Z" fill="#263238"/>
<path d="M158.14 391.47C158.19 391.69 157.19 392.1 156.41 393.09C155.63 394.08 155.41 395.09 155.19 395.09C154.97 395.09 154.79 393.77 155.79 392.56C156.79 391.35 158.13 391.25 158.14 391.47Z" fill="#263238"/>
<path d="M161 397.41C160.79 397.41 160.46 396.31 161 395.03C161.54 393.75 162.67 393.23 162.77 393.43C162.87 393.63 162.2 394.3 161.77 395.36C161.34 396.42 161.26 397.39 161 397.41Z" fill="#263238"/>
<path d="M152.65 383.85C152.56 384.07 151.49 383.76 150.18 383.85C148.87 383.94 147.84 384.38 147.72 384.18C147.6 383.98 148.57 383.18 150.12 383.04C151.67 382.9 152.76 383.67 152.65 383.85Z" fill="#263238"/>
<path d="M138.08 267C138.08 267 151.08 266 152.51 280.06C153.94 294.12 155.38 359.93 155.38 359.93L125 362.47L120.3 295.25L71.8701 274.65C71.8701 274.65 129.4 265.2 138.08 267Z" fill="#263238"/>
<path d="M84.53 248C84.53 248 92.41 270.11 90.91 272.57C89.41 275.03 69.13 285.17 69.13 285.17L18.4 304.65C18.4 304.65 13.19 296.36 13.19 283.65C13.19 270.94 30.84 248 30.84 248H84.53Z" fill="#263238"/>
<path d="M69.4902 273.52L69.7302 273.65L70.4502 273.98L73.2602 275.23L83.8102 279.83L120.21 295.5L120.05 295.27C120.51 301.91 121.05 309.08 121.52 316.5C122.76 333.84 123.89 349.84 124.8 362.5V362.73H125.03L147.15 360.79L153.24 360.22L154.83 360.05C155.012 360.039 155.193 360.012 155.37 359.97H154.82L153.23 360.07L147.13 360.52L125 362.25L125.25 362.46C124.38 349.8 123.25 333.81 122.09 316.46C121.57 309.04 121.09 301.87 120.59 295.23V295.06L120.44 295L83.9402 279.51L73.3302 275.06L70.4902 273.89L69.7502 273.6L69.4902 273.52Z" fill="#455A64"/>
<path d="M29.1401 275.73C29.6297 275.653 30.1093 275.522 30.5701 275.34L34.3901 274.11C38.5579 272.697 42.8314 271.617 47.1701 270.88C51.5099 270.172 55.9402 270.229 60.2601 271.05C62.032 271.465 63.7811 271.973 65.5001 272.57C65.0901 272.292 64.6466 272.067 64.1801 271.9C62.9375 271.379 61.6529 270.964 60.3401 270.66C55.9852 269.706 51.4883 269.591 47.0901 270.32C42.7164 271.054 38.421 272.196 34.2601 273.73C32.6601 274.3 31.3801 274.79 30.4901 275.13C30.0208 275.283 29.5684 275.484 29.1401 275.73Z" fill="#455A64"/>
<path d="M36.31 264.08C37.7887 263.992 39.2713 263.992 40.75 264.08C42.12 264.18 43.75 264.39 45.55 264.6C47.35 264.81 49.34 265.06 51.4 265.45C54.9224 266.014 58.2997 267.264 61.34 269.13C62.5508 269.978 63.7034 270.907 64.79 271.91C64.594 271.557 64.3444 271.236 64.05 270.96C63.3002 270.152 62.4653 269.428 61.56 268.8C58.5264 266.789 55.0952 265.456 51.5 264.89C49.42 264.5 47.42 264.27 45.61 264.08C43.8 263.89 42.16 263.73 40.77 263.68C39.6744 263.629 38.5764 263.679 37.49 263.83C37.0867 263.857 36.6894 263.941 36.31 264.08Z" fill="#455A64"/>
<path d="M58.72 86.43C52.89 85.43 47.72 87.69 42.83 90.98C37.8271 94.4992 34.015 99.4591 31.9016 105.199C29.7882 110.939 29.4737 117.187 31 123.11C31.8415 126.121 33.2858 128.929 35.2455 131.365C37.2051 133.801 39.6392 135.813 42.4 137.28C49.99 141.14 59.7 139.8 66.49 134.66C73.28 129.52 77.17 121.03 77.49 112.52C77.7883 106.61 76.2173 100.756 73 95.79C71.3867 93.3296 69.2832 91.2284 66.821 89.6179C64.3588 88.0074 61.5907 86.9221 58.69 86.43" fill="#263238"/>
<path d="M42.12 106.28C42.97 104.05 42.64 101.56 42.98 99.19C43.73 93.98 47.92 89.8 52.78 87.77C57.3 85.88 62.78 86.29 68.26 88.05C72.0452 89.1904 75.425 91.3904 78 94.39C79.6371 96.4229 80.7637 98.8182 81.2856 101.376C81.8076 103.933 81.7096 106.578 81 109.09L54.33 105.21C51.84 107.27 49.33 109.37 46.25 110.52C45.3785 110.91 44.4201 111.065 43.47 110.97C42.9972 110.914 42.5506 110.723 42.1836 110.419C41.8165 110.116 41.5445 109.714 41.4 109.26C41.15 108.25 41.75 107.25 42.12 106.28Z" fill="#263238"/>
<path d="M68.8302 95.41L45.5502 100.34C44.4629 100.412 43.4424 100.89 42.6905 101.679C41.9387 102.468 41.5104 103.51 41.4902 104.6L41.7702 155C41.7872 158.445 42.9401 161.787 45.0502 164.51L47.2702 167.37C52.3402 173.9 62.5902 173.24 66.4602 165.94C66.7022 165.521 66.884 165.07 67.0002 164.6C67.0969 164.225 67.1704 163.844 67.2202 163.46L67.6702 158.55C67.8902 154.07 67.9302 149.55 67.9302 149.55C67.9302 149.55 77.4502 148.34 79.9302 136.07C81.1002 130 81.1802 119.88 81.0002 111.63C80.8002 104.2 76.2502 94.92 68.8302 95.41Z" fill="#FFBE9D"/>
<path d="M77.44 121.08C77.4295 121.494 77.2571 121.887 76.9597 122.175C76.6624 122.463 76.2639 122.623 75.85 122.62C75.6479 122.628 75.4462 122.596 75.2568 122.525C75.0674 122.454 74.894 122.346 74.7469 122.207C74.5997 122.068 74.4818 121.902 74.3999 121.717C74.318 121.532 74.2738 121.332 74.27 121.13C74.283 120.717 74.4562 120.325 74.753 120.038C75.0498 119.75 75.4468 119.59 75.86 119.59C76.0621 119.582 76.2638 119.614 76.4532 119.685C76.6426 119.756 76.816 119.864 76.9631 120.003C77.1103 120.142 77.2282 120.308 77.3101 120.493C77.392 120.678 77.4362 120.878 77.44 121.08Z" fill="#263238"/>
<path d="M78.59 116.78C78.39 116.98 77.22 116.05 75.52 115.98C73.82 115.91 72.52 116.73 72.36 116.51C72.2 116.29 72.48 116.05 73.04 115.67C73.8002 115.188 74.6912 114.954 75.59 115C76.475 115.026 77.3277 115.338 78.02 115.89C78.53 116.31 78.7 116.69 78.59 116.78Z" fill="#263238"/>
<path d="M62.16 120.7C62.1495 121.114 61.9771 121.507 61.6797 121.795C61.3824 122.083 60.9839 122.243 60.57 122.24C60.3691 122.245 60.169 122.211 59.9814 122.139C59.7937 122.067 59.6221 121.959 59.4763 121.82C59.3305 121.682 59.2134 121.516 59.1316 121.333C59.0499 121.149 59.0052 120.951 59 120.75C59.013 120.337 59.1862 119.945 59.483 119.658C59.7798 119.37 60.1768 119.21 60.59 119.21C60.7916 119.202 60.9928 119.234 61.1817 119.305C61.3705 119.376 61.5432 119.485 61.6896 119.624C61.8359 119.762 61.953 119.929 62.0338 120.114C62.1146 120.299 62.1575 120.498 62.16 120.7Z" fill="#263238"/>
<path d="M62.41 116.37C62.2 116.56 61.04 115.63 59.33 115.57C57.62 115.51 56.33 116.31 56.17 116.09C56.01 115.87 56.29 115.63 56.86 115.26C57.616 114.776 58.5034 114.539 59.4 114.58C60.2867 114.613 61.1405 114.924 61.84 115.47C62.34 115.9 62.51 116.28 62.41 116.37Z" fill="#263238"/>
<path d="M67.5202 129.33C68.4298 129.082 69.3674 128.951 70.3102 128.94C70.7502 128.94 71.1602 128.84 71.2502 128.55C71.3012 128.099 71.2177 127.644 71.0102 127.24C70.6402 126.18 70.2502 125.05 69.8502 123.88C68.2402 119.09 67.1002 115.16 67.2902 115.1C67.4802 115.04 68.9402 118.87 70.5502 123.65L71.6502 127.04C71.9073 127.572 71.964 128.179 71.8102 128.75C71.7415 128.901 71.6392 129.035 71.5109 129.141C71.3826 129.247 71.2319 129.322 71.0702 129.36C70.8278 129.417 70.5792 129.444 70.3302 129.44C69.3927 129.522 68.4485 129.485 67.5202 129.33Z" fill="#263238"/>
<path d="M67.92 149.55C62.0972 149.41 56.4272 147.659 51.54 144.49C51.54 144.49 55.37 153.21 67.78 152.49L67.92 149.55Z" fill="#EB996E"/>
<path d="M66.64 133.41C66.3306 132.99 65.9198 132.655 65.4459 132.436C64.972 132.218 64.4505 132.123 63.93 132.16C63.5456 132.179 63.1693 132.278 62.825 132.45C62.4807 132.622 62.176 132.864 61.93 133.16C61.6946 133.432 61.5475 133.768 61.5082 134.126C61.4689 134.483 61.5393 134.844 61.71 135.16C61.9705 135.478 62.3201 135.711 62.714 135.828C63.1078 135.946 63.5278 135.943 63.92 135.82C64.7382 135.568 65.4968 135.153 66.15 134.6C66.3502 134.471 66.5235 134.305 66.66 134.11C66.7232 134.017 66.757 133.907 66.757 133.795C66.757 133.683 66.7232 133.573 66.66 133.48" fill="#EB996E"/>
<path d="M62.4598 130.32C62.7398 130.32 62.6698 132.16 64.1998 133.54C65.7298 134.92 67.7098 134.78 67.7198 135.04C67.7298 135.3 67.2598 135.38 66.4298 135.37C65.3447 135.346 64.303 134.939 63.4898 134.22C62.7105 133.532 62.2298 132.567 62.1498 131.53C62.1098 130.75 62.3298 130.3 62.4598 130.32Z" fill="#263238"/>
<path d="M62.3098 111.31C62.1298 111.76 60.4298 111.48 58.4198 111.64C56.4098 111.8 54.7698 112.29 54.5298 111.86C54.4098 111.66 54.7098 111.23 55.3798 110.86C56.269 110.335 57.2693 110.027 58.2998 109.96C59.3238 109.878 60.3526 110.042 61.2998 110.44C61.9998 110.71 62.3898 111.09 62.3098 111.31Z" fill="#263238"/>
<path d="M78.39 109.31C78.07 109.68 76.92 109.24 75.5 109.16C74.08 109.08 72.89 109.32 72.63 108.9C72.51 108.7 72.72 108.32 73.25 107.98C73.9688 107.564 74.7954 107.373 75.6239 107.43C76.4523 107.487 77.2449 107.79 77.9 108.3C78.38 108.72 78.53 109.12 78.39 109.31Z" fill="#263238"/>
<path d="M37.85 102.69C40.27 95.6 50.85 85.94 58.26 86.61L70.05 94C69.6206 96.0293 68.6503 97.9046 67.2419 99.4274C65.8336 100.95 64.0396 102.064 62.05 102.65C59.92 103.25 57.38 103.38 56.05 105.17C54.72 106.96 55.43 109.7 54.2 111.59C52.49 114.2 47.98 113.99 46.68 116.83C46.12 118.07 46.37 119.57 45.78 120.83C45 122.47 40.78 124.48 39.05 123.9C37.32 123.32 37.38 120.37 36.85 118.81C36.168 117.052 36.1185 115.111 36.71 113.32C37.59 109.81 36.7 106.07 37.85 102.69Z" fill="#263238"/>
<path d="M44.1901 125.43C44.1901 124.51 43.2401 122.3 42.3401 122.12C39.9301 121.65 35.5501 121.67 35.2701 127.83C34.8901 136.25 43.4201 134.9 43.4401 134.66C43.4601 134.42 44.0701 128.61 44.1901 125.43Z" fill="#FFBE9D"/>
<path d="M41.0001 131.35C41.0001 131.35 40.8501 131.45 40.5901 131.55C40.4174 131.622 40.2322 131.659 40.0451 131.659C39.8581 131.659 39.6729 131.622 39.5001 131.55C38.6201 131.19 37.9401 129.74 37.9601 128.22C37.975 127.498 38.1492 126.787 38.4701 126.14C38.5537 125.867 38.7048 125.619 38.9092 125.42C39.1137 125.221 39.3651 125.076 39.6401 125C39.8121 124.963 39.9914 124.989 40.1468 125.071C40.3021 125.153 40.4237 125.287 40.4901 125.45C40.5901 125.69 40.4901 125.85 40.5801 125.87C40.6701 125.89 40.7601 125.74 40.7101 125.39C40.6749 125.176 40.5651 124.981 40.4001 124.84C40.1769 124.654 39.8893 124.564 39.6001 124.59C39.2467 124.646 38.9138 124.793 38.6335 125.015C38.3532 125.237 38.1351 125.529 38.0001 125.86C37.6116 126.572 37.4022 127.369 37.3901 128.18C37.3901 129.88 38.1601 131.51 39.3901 131.91C39.6126 131.987 39.8497 132.012 40.0835 131.985C40.3173 131.957 40.5418 131.877 40.7401 131.75C41.0001 131.56 41.0501 131.37 41.0001 131.35Z" fill="#EB996E"/>
<path d="M36.05 100.5C36.05 97.87 32.79 96.15 30.22 95.5C27.5917 95.057 24.8922 95.5905 22.63 97C21.28 97.74 19.92 98.79 19.63 100.3C19.34 101.81 20.78 103.62 22.22 103.08C21.5497 103.348 20.9423 103.752 20.4365 104.267C19.9307 104.782 19.5375 105.397 19.2817 106.072C19.026 106.747 18.9133 107.468 18.9509 108.189C18.9885 108.91 19.1755 109.615 19.5 110.26C19.8869 110.87 20.3963 111.392 20.996 111.795C21.5956 112.197 22.2723 112.47 22.9832 112.597C23.694 112.724 24.4235 112.702 25.1253 112.532C25.8272 112.362 26.486 112.048 27.06 111.61C26.3273 114.051 24.7818 116.168 22.68 117.61C24.8605 117.922 27.0846 117.653 29.1279 116.83C31.1712 116.008 32.9613 114.661 34.3175 112.925C35.6737 111.189 36.548 109.127 36.8522 106.945C37.1564 104.764 36.8797 102.54 36.05 100.5Z" fill="#263238"/>
<path d="M30.21 113.9C29.9608 113.081 29.8526 112.225 29.89 111.37C29.8832 109.302 30.2211 107.247 30.89 105.29C31.5475 103.332 32.5314 101.5 33.8 99.87C34.2826 99.1674 34.8811 98.552 35.57 98.05C35.73 98.15 32.91 100.95 31.42 105.47C30.5833 108.201 30.1751 111.044 30.21 113.9Z" fill="#D11A30"/>
<path d="M67.6 91.45C68.38 94.88 73.6 99.28 75.88 101.95C80.24 107.04 81.1 108.73 81.06 120.11C83.12 116.18 84.7 112.33 84.54 107.89C84.4423 103.406 82.7064 99.1122 79.66 95.82C78.1275 94.2047 76.2397 92.9688 74.1463 92.2102C72.0529 91.4517 69.8115 91.1914 67.6 91.45Z" fill="#263238"/>
<path d="M103.32 185.14C103.32 185.14 94.2399 170 91.7199 167C89.6992 164.632 87.1555 162.766 84.2899 161.55C83.1605 161.057 81.975 160.705 80.7599 160.5L67.6999 157.56C67.6999 157.56 67.6999 166.47 58.3499 167.02C48.9999 167.57 41.1499 154.57 41.1499 154.57C41.1499 154.57 26.0799 156.9 22.4699 158.76C18.8599 160.62 13.1899 162.97 10.0699 178.59L7.87988 193.88L33.8799 196.28L36.3699 234.91L49.2599 243.91C49.2599 243.91 85.0099 253.21 87.2599 253.82C89.5099 254.43 90.2599 196.3 90.2599 196.3C90.2599 196.3 99.5199 190.34 103.32 185.14Z" fill="#263238"/>
<path d="M86.2002 178.64C86.4109 178.993 86.5819 179.369 86.7102 179.76C87.0002 180.48 87.3802 181.56 87.8002 182.9C88.8883 186.404 89.6614 189.998 90.1102 193.64C90.5531 197.289 90.6703 200.97 90.4602 204.64C90.3802 206.05 90.2702 207.18 90.1502 207.96C90.1223 208.366 90.0519 208.768 89.9402 209.16C89.8924 208.755 89.8924 208.345 89.9402 207.94C89.9402 207.16 90.0402 206.02 90.0802 204.63C90.1781 200.989 90.0109 197.346 89.5802 193.73C89.1339 190.106 88.4219 186.52 87.4502 183C87.0802 181.65 86.7502 180.57 86.5102 179.82C86.367 179.438 86.2632 179.043 86.2002 178.64Z" fill="#455A64"/>
<path d="M85.0899 241.93L36.1399 231.27L33.8799 196.27L12.1099 194.27C12.1099 194.27 12.9199 218.19 13.7499 225.27C14.9599 235.5 20.9999 249.45 24.5399 252.27C28.0799 255.09 87.2899 253.8 87.2899 253.8L85.0899 241.93Z" fill="#FFBE9D"/>
<path d="M112.88 248.27C112.717 248.608 112.457 248.89 112.132 249.079C111.808 249.268 111.435 249.355 111.06 249.33C110.896 249.319 110.735 249.285 110.58 249.23C109.5 248.89 109.58 246.68 109.58 246.68L104.4 245.83C104.4 245.83 97.65 250.18 95.25 253.07C92.85 255.96 86.73 253.62 86.73 253.62L84.6 242.56L94.15 233.92C94.15 233.92 93.57 234.44 94.22 232.82C94.87 231.2 97.88 231.82 97.88 231.82C98.35 231.02 100.31 230.73 100.31 230.73L108.69 231.73C109.541 231.83 110.359 232.119 111.084 232.576C111.809 233.033 112.422 233.646 112.88 234.37L116.42 239.97C116.42 239.97 118.3 243.97 117.99 244.97C117.856 245.372 117.576 245.708 117.205 245.912C116.835 246.116 116.401 246.172 115.99 246.07C115.99 246.07 115.58 248.72 114.88 248.81C114.165 248.78 113.463 248.613 112.81 248.32L112.88 248.27Z" fill="#FFBE9D"/>
<path d="M95.0498 240.33C95.0498 240.41 96.1798 240.33 97.9698 240.39C100.295 240.497 102.594 240.928 104.8 241.67C106.015 242.075 107.195 242.577 108.33 243.17C109.33 243.74 110.39 244.17 110.72 244.95C110.794 245.11 110.825 245.286 110.809 245.462C110.794 245.638 110.732 245.806 110.63 245.95C110.474 246.186 110.251 246.371 109.99 246.48C109.754 246.556 109.508 246.594 109.26 246.59C109.26 246.59 109.52 246.82 110.06 246.68C110.383 246.585 110.667 246.389 110.87 246.12C111.013 245.937 111.107 245.721 111.142 245.491C111.177 245.262 111.152 245.027 111.07 244.81C110.86 244.327 110.512 243.917 110.07 243.63C109.61 243.33 109.13 243.03 108.6 242.74C107.451 242.11 106.25 241.581 105.01 241.16C102.752 240.393 100.384 240.002 97.9998 240C97.0053 239.956 96.0101 240.068 95.0498 240.33Z" fill="#EB996E"/>
<path d="M94.4702 245.67C94.4702 245.82 97.8902 245.67 102.07 245.93C106.25 246.19 109.63 246.69 109.66 246.53C108.96 246.257 108.227 246.078 107.48 246C105.699 245.699 103.903 245.495 102.1 245.39C100.302 245.289 98.4988 245.289 96.7002 245.39C95.9475 245.379 95.1969 245.473 94.4702 245.67Z" fill="#EB996E"/>
<path d="M112.83 248.05C112.906 247.76 112.943 247.46 112.94 247.16C112.991 246.344 112.991 245.526 112.94 244.71C112.912 244.138 112.835 243.569 112.71 243.01C112.557 242.356 112.278 241.738 111.89 241.19C111.065 239.921 109.998 238.827 108.75 237.97C107.521 237.113 106.173 236.439 104.75 235.97C103.573 235.627 102.356 235.442 101.13 235.42C100.13 235.42 99.26 235.42 98.69 235.42C98.3866 235.406 98.0829 235.439 97.79 235.52C98.8909 235.67 99.9993 235.76 101.11 235.79C102.298 235.873 103.472 236.091 104.61 236.44C105.974 236.932 107.265 237.605 108.45 238.44C109.631 239.262 110.648 240.296 111.45 241.49C112.106 242.463 112.483 243.598 112.54 244.77C112.77 246.77 112.72 248.06 112.83 248.05Z" fill="#EB996E"/>
<path d="M100.73 232.86C100.73 232.94 101.99 232.97 103.99 233.2C105.99 233.43 108.99 233.64 110.76 236.3C112.465 238.283 113.886 240.494 114.98 242.87C115.342 243.887 115.61 244.934 115.78 246C115.834 245.706 115.834 245.404 115.78 245.11C115.729 244.301 115.564 243.503 115.29 242.74C114.273 240.271 112.865 237.982 111.12 235.96C110.655 235.344 110.111 234.792 109.5 234.32C108.898 233.886 108.22 233.57 107.5 233.39C106.338 233.085 105.149 232.897 103.95 232.83C102.88 232.701 101.798 232.711 100.73 232.86Z" fill="#EB996E"/>
<path d="M97.0999 251.28C97.2802 251.172 97.4479 251.045 97.5999 250.9L98.9999 249.78C100.761 248.411 102.601 247.145 104.51 245.99H104.39L109.57 246.87L109.39 246.65C109.374 247.076 109.407 247.502 109.49 247.92C109.553 248.388 109.759 248.824 110.08 249.17C110.271 249.339 110.507 249.447 110.76 249.48C111.001 249.53 111.249 249.53 111.49 249.48C111.991 249.406 112.449 249.154 112.78 248.77C112.868 248.675 112.945 248.571 113.01 248.46V248.38L112.71 248.49L112.88 248.56C113.1 248.65 113.32 248.73 113.55 248.8C113.782 248.873 114.02 248.93 114.26 248.97C114.385 248.997 114.512 249.014 114.64 249.02C114.806 249.034 114.973 248.999 115.12 248.92C115.354 248.75 115.532 248.513 115.63 248.24C115.734 248.01 115.821 247.773 115.89 247.53C116.029 247.047 116.14 246.556 116.22 246.06L115.92 246.27C116.271 246.343 116.636 246.321 116.975 246.205C117.315 246.088 117.617 245.883 117.85 245.61C118.092 245.315 118.22 244.942 118.21 244.56C118.183 244.222 118.122 243.887 118.03 243.56C117.637 242.286 117.159 241.04 116.6 239.83L114.71 236.83L113.51 234.93C113.142 234.274 112.702 233.66 112.2 233.1C111.665 232.56 111.025 232.134 110.32 231.85C109.632 231.596 108.911 231.445 108.18 231.4L100.29 230.52H100.23C99.7555 230.593 99.2898 230.713 98.8399 230.88C98.3636 231.031 97.9448 231.324 97.6399 231.72L97.9299 231.63C97.5022 231.438 97.0347 231.351 96.5666 231.377C96.0985 231.404 95.6435 231.542 95.2399 231.78C94.5825 232.304 94.1411 233.051 93.9999 233.88L94.0599 233.77L87.4799 239.69L85.7099 241.33C85.491 241.51 85.29 241.711 85.1099 241.93C85.3482 241.777 85.5724 241.603 85.7799 241.41L87.6299 239.86L94.3199 234.07V234C94.4653 233.262 94.8829 232.605 95.4899 232.16C95.8329 231.964 96.2179 231.852 96.6127 231.835C97.0076 231.817 97.4009 231.895 97.7599 232.06L97.9399 232.14L98.0499 231.97C98.3121 231.664 98.6607 231.444 99.0499 231.34C99.4684 231.189 99.9003 231.079 100.34 231.01H100.28L108.17 231.94C108.854 231.975 109.529 232.117 110.17 232.36C110.808 232.616 111.387 233 111.87 233.49C112.347 234.025 112.763 234.612 113.11 235.24C113.51 235.86 113.91 236.5 114.31 237.13L116.2 240.13C116.756 241.312 117.227 242.531 117.61 243.78C117.697 244.067 117.754 244.362 117.78 244.66C117.792 244.92 117.702 245.175 117.53 245.37C117.36 245.57 117.14 245.72 116.891 245.805C116.643 245.889 116.376 245.905 116.12 245.85H115.85V246.1C115.773 246.572 115.669 247.039 115.54 247.5C115.46 247.914 115.274 248.3 115 248.62C114.931 248.639 114.859 248.639 114.79 248.62C114.683 248.629 114.576 248.629 114.47 248.62C114.25 248.584 114.033 248.534 113.82 248.47L113.18 248.25L113.03 248.18L112.72 248.29V248.36C112.669 248.444 112.612 248.524 112.55 248.6C112.294 248.902 111.94 249.104 111.55 249.17C111.361 249.205 111.168 249.205 110.98 249.17C110.803 249.153 110.636 249.084 110.5 248.97C110.063 248.335 109.865 247.567 109.94 246.8V246.61H109.77L104.57 245.8H104.51H104.45C102.551 246.995 100.734 248.315 99.0099 249.75C98.4099 250.257 97.9599 250.657 97.6599 250.95C97.4649 251.045 97.2777 251.156 97.0999 251.28Z" fill="#EB996E"/>
<path d="M176.39 216.1L111.92 216.62C109.82 216.62 107.83 217.62 107.51 219.7L100.51 266.7H67.25C66.7608 266.735 66.3032 266.954 65.969 267.313C65.6349 267.672 65.4492 268.145 65.4492 268.635C65.4492 269.125 65.6349 269.598 65.969 269.957C66.3032 270.316 66.7608 270.535 67.25 270.57H173.33L180.58 221C180.675 220.395 180.638 219.776 180.472 219.186C180.305 218.597 180.012 218.05 179.614 217.584C179.216 217.119 178.721 216.745 178.165 216.489C177.608 216.232 177.003 216.1 176.39 216.1Z" fill="#263238"/>
<path d="M176.39 216.1C176.726 216.086 177.063 216.12 177.39 216.2C178.248 216.403 179.022 216.867 179.605 217.528C180.189 218.189 180.554 219.014 180.65 219.89C180.674 220.78 180.593 221.669 180.41 222.54C180.14 224.44 179.83 226.63 179.48 229.08C178.06 238.94 176.02 253.14 173.48 270.59V270.76H173.31L70.3998 270.83H67.6498C67.1435 270.872 66.6353 270.775 66.1798 270.55C65.7204 270.288 65.3667 269.875 65.1798 269.38C65.0044 268.889 65.0086 268.351 65.1917 267.862C65.3747 267.374 65.7247 266.965 66.1798 266.71C66.6317 266.485 67.1367 266.388 67.6398 266.43H100.46L100.21 266.65C102.74 249.81 105.11 234.11 107.21 220.03C107.28 219.087 107.709 218.206 108.41 217.57C109.107 216.977 109.962 216.602 110.87 216.49C111.734 216.403 112.602 216.369 113.47 216.39H116L125.71 216.32L142.96 216.21L167.52 216.09H175.79H176.36C176.36 216.09 176.17 216.09 175.79 216.09H174.09L167.52 216.19L142.96 216.46L125.71 216.63L116 216.72H113.47C112.625 216.699 111.781 216.729 110.94 216.81C110.11 216.921 109.329 217.268 108.69 217.81C108.08 218.383 107.721 219.174 107.69 220.01C105.59 234.1 103.24 249.81 100.69 266.64V266.85H67.6898C67.278 266.806 66.8622 266.879 66.4898 267.06C66.2269 267.204 66.0076 267.416 65.8549 267.674C65.7021 267.931 65.6215 268.225 65.6215 268.525C65.6215 268.825 65.7021 269.119 65.8549 269.377C66.0076 269.634 66.2269 269.846 66.4898 269.99C66.8624 270.181 67.2845 270.255 67.6998 270.2H70.4698L173.38 270.27L173.18 270.44C175.77 252.99 177.87 238.8 179.33 228.95C179.7 226.5 180.03 224.31 180.33 222.41C180.515 221.553 180.606 220.677 180.6 219.8C180.53 219.079 180.272 218.389 179.85 217.8C179.274 216.988 178.432 216.404 177.47 216.15C176.74 216.1 176.39 216.13 176.39 216.1Z" fill="#263238"/>
<path d="M141.42 246.78C143.651 246.78 145.46 244.971 145.46 242.74C145.46 240.509 143.651 238.7 141.42 238.7C139.189 238.7 137.38 240.509 137.38 242.74C137.38 244.971 139.189 246.78 141.42 246.78Z" fill="white"/>
<path d="M103.08 270.13C103.17 270.13 105.22 258.18 107.66 243.41C110.1 228.64 112.01 216.64 111.92 216.62C111.83 216.6 109.77 228.57 107.33 243.35C104.89 258.13 103 270.12 103.08 270.13Z" fill="#263238"/>
</g>
<defs>
<clipPath id="clip0_1_81">
<rect width="428.14" height="443.06" fill="white"/>
</clipPath>
</defs>
</svg>
